<?xml version="1.0" standalone="no"?>
<!DOCTYPE svg PUBLIC "-//W3C//DTD SVG 20010904//EN"
 "http://www.w3.org/TR/2001/REC-SVG-20010904/DTD/svg10.dtd">
<svg version="1.0" xmlns="http://www.w3.org/2000/svg"
 width="260.000000pt" height="260.000000pt" viewBox="0 0 260.000000 260.000000"
 preserveAspectRatio="xMidYMid meet">
<metadata>
Created by potrace 1.11, written by Peter Selinger 2001-2013
</metadata>
<g transform="translate(0.000000,260.000000) scale(0.100000,-0.100000)"
fill="#000000" stroke="none">
<path d="M230 2583 c-65 -22 -126 -68 -165 -121 -69 -95 -66 -34 -63 -1182 l3
-1035 25 -50 c31 -64 101 -134 165 -165 l50 -25 1055 0 1055 0 50 25 c64 31
134 101 165 165 l25 50 0 1055 0 1055 -25 50 c-31 64 -101 134 -165 165 l-50
25 -1040 2 c-926 2 -1045 1 -1085 -14z m770 -628 c47 -8 86 -15 88 -15 1 0 2
-65 2 -145 l0 -145 -64 0 -64 0 -17 49 c-40 120 -108 166 -233 159 -57 -3 -76
-9 -106 -31 -53 -41 -69 -78 -64 -153 3 -52 9 -70 34 -101 33 -41 135 -112
266 -183 97 -53 194 -144 227 -212 31 -65 43 -158 30 -238 -19 -118 -78 -206
-176 -257 -99 -53 -161 -66 -314 -65 -120 1 -322 22 -364 39 -12 4 -15 33 -15
154 l0 149 69 0 69 0 7 -32 c12 -52 51 -123 85 -151 73 -62 233 -62 302 0 30
26 58 92 58 138 0 115 -57 182 -247 287 -150 84 -209 130 -256 201 -96 144
-82 331 33 444 54 55 148 101 241 119 90 17 286 12 409 -11z m1370 -165 l0
-170 -69 0 -69 0 -21 70 c-37 121 -89 160 -214 160 l-58 0 3 -539 c3 -530 3
-540 24 -568 12 -16 36 -32 57 -37 33 -9 37 -13 37 -43 l0 -33 -270 0 -270 0
0 35 c0 29 4 35 20 35 37 0 77 28 89 61 7 22 11 199 11 560 l0 529 -54 0 c-84
0 -116 -10 -156 -50 -25 -25 -43 -57 -59 -108 l-22 -72 -65 0 -64 0 0 170 0
170 575 0 575 0 0 -170z"/>
</g>
</svg>
