<?xml version="1.0" standalone="no"?>
<!DOCTYPE svg PUBLIC "-//W3C//DTD SVG 1.1//EN" "http://www.w3.org/Graphics/SVG/1.1/DTD/svg11.dtd" >
<svg xmlns="http://www.w3.org/2000/svg" xmlns:xlink="http://www.w3.org/1999/xlink" version="1.1">
<metadata></metadata>
<defs>
<font id="caladeabold" horiz-adv-x="1212" >
<font-face units-per-em="2048" ascent="1593" descent="-455" />
<missing-glyph horiz-adv-x="450" />
<glyph horiz-adv-x="0" />
<glyph unicode="&#xd;" horiz-adv-x="681" />
<glyph unicode=" "  horiz-adv-x="450" />
<glyph unicode="&#x09;" horiz-adv-x="450" />
<glyph unicode="&#xa0;" horiz-adv-x="450" />
<glyph unicode="!" horiz-adv-x="686" d="M154 125q0 143 162.5 143t162.5 -143t-162.5 -143t-162.5 143zM195 1341q12 27 50 49.5t89 22.5q104 0 146 -45t42 -123t-51 -367.5t-61 -422.5l-174 -33q14 364 14 407q0 322 -55 512z" />
<glyph unicode="&#x22;" horiz-adv-x="864" d="M143.5 1320.5q-0.5 59.5 30.5 89.5t79 30t80 -30t32 -71q0 -70 -43 -315l-15 -82h-106q-57 319 -57.5 378.5zM500 1320.5q0 59.5 30.5 89.5t78.5 30t80 -30t32 -71q0 -70 -43 -315l-14 -82h-107q-57 319 -57 378.5z" />
<glyph unicode="#" horiz-adv-x="1265" d="M66 322l24 163h225l50 224h-193l25 163h204l72 332l160 -37l-66 -295h226l71 332l160 -37l-66 -295h240l-24 -163h-250l-50 -224h218l-25 -163h-227l-78 -359l-160 37l70 322h-223l-78 -359l-160 37l70 322h-215zM483 485h224l49 224h-224z" />
<glyph unicode="$" horiz-adv-x="1112" d="M143 307q0 63 40 103.5t108.5 40.5t101.5 -60q-16 -43 -16 -90t41 -85t108 -48v422q-199 74 -279.5 156.5t-80.5 217t100.5 225.5t259.5 107v209l29 17l94 -13v-213q143 -12 239.5 -77.5t96.5 -153.5q0 -59 -31.5 -96t-93 -37t-129.5 55q45 51 45 98q0 92 -127 115v-375 q190 -88 270 -178t80 -232.5t-94 -233.5t-256 -109v-199l-20 -23l-103 19v199q-383 16 -383 239zM408 1059q0 -59 26.5 -100t91.5 -78v315q-118 -33 -118 -137zM649 182q94 43 94 153.5t-94 184.5v-338z" />
<glyph unicode="%" horiz-adv-x="1998" d="M127 945q0 206 87 315.5t251 109.5t251 -109.5t87 -315.5t-87 -316.5t-251 -110.5t-251 110.5t-87 316.5zM342 946q0 -184 28.5 -262t94 -78t95.5 79t30 261t-30 262t-95.5 80t-94 -79t-28.5 -263zM602 4l658 1397l135 -66l-658 -1396zM1196 406.5q0 205.5 87 315 t251 109.5t251 -109.5t87 -315t-87 -316t-251 -110.5t-251 110.5t-87 316zM1411 407.5q0 -184.5 28.5 -262t94 -77.5t95.5 78.5t30 261t-30 262.5t-95.5 80t-94 -79t-28.5 -263.5z" />
<glyph unicode="&#x26;" horiz-adv-x="1515" d="M66 401q0 295 274 390q-174 78 -174 270q0 166 132 256t320 90q209 0 336 -100q76 -57 76 -136t-48 -133.5t-118.5 -54.5t-122.5 49q33 59 33 115.5t-40 92.5t-111.5 36t-112.5 -53.5t-41 -140.5t40 -146t130 -62v-169q-123 -18 -197.5 -97.5t-74.5 -215.5t86 -216 t213 -80q197 0 298 125t101 314q0 121 -41 239q-76 -6 -76 -94q0 -53 31 -90q-55 -39 -123 -39t-107.5 40t-39.5 103q0 213 358 213q100 0 143 21.5t43 72t-39 84.5q51 39 122 39t111 -34.5t40 -90.5q0 -164 -254 -200q37 -119 37 -236q0 -248 -160 -411.5t-463 -163.5 q-242 0 -411.5 110t-169.5 303z" />
<glyph unicode="'" horiz-adv-x="514" d="M143.5 1320.5q-0.5 59.5 30.5 89.5t79 30t80 -30t32 -71q0 -70 -43 -315l-15 -82h-106q-57 319 -57.5 378.5z" />
<glyph unicode="(" horiz-adv-x="835" d="M190 578q0 172 55.5 329.5t135.5 259.5q164 215 289 293l55 35l51 -51q-346 -332 -346 -864.5t346 -864.5l-51 -53q-68 37 -173.5 134.5t-176 194.5t-128 256t-57.5 331z" />
<glyph unicode=")" horiz-adv-x="835" d="M59 -285q347 332 347 864.5t-347 864.5l52 51q180 -109 323 -299q211 -281 211 -618q0 -248 -106 -451q-96 -182 -220 -297q-115 -111 -180 -149l-28 -19z" />
<glyph unicode="*" horiz-adv-x="927" d="M141 1067q0 33 20.5 53.5t46 20.5t84 -27t118.5 -33q-31 43 -73 75t-63.5 53.5t-21.5 51t22.5 51t61.5 21.5t51 -25.5t20.5 -90t30.5 -115.5q33 70 41 168q4 63 70 63q33 0 54.5 -21.5t21.5 -57t-61.5 -81t-94.5 -90.5q53 6 113.5 32t86 26t47 -20.5t21.5 -53.5 t-21.5 -54.5t-48 -21.5t-87 25.5t-113.5 32.5q33 -45 75 -76t62.5 -50.5t20.5 -51t-22.5 -53t-62.5 -21.5t-50.5 22.5t-16.5 88t-35 124.5q-25 -55 -31 -118.5t-14 -77.5q-27 -39 -61.5 -39t-57 21.5t-22.5 52t20.5 50t62.5 50t73 78.5q-57 -6 -116 -32t-84.5 -26t-46 21.5 t-20.5 54.5z" />
<glyph unicode="+" d="M186 487v195h314v322h205v-322h319v-195h-319v-319h-205v319h-314z" />
<glyph unicode="," horiz-adv-x="475" d="M70 -215q63 47 102 105.5t39 112.5t-53 54q-16 0 -41 -10q-45 43 -45 101.5t40 98.5t112.5 40t115.5 -48.5t43 -129.5q0 -248 -256 -396z" />
<glyph unicode="-" horiz-adv-x="690" d="M109 449v194h473v-194h-473z" />
<glyph unicode="." horiz-adv-x="475" d="M96 147q0 158 143.5 158t143.5 -156.5t-143 -156.5q-72 0 -108 42t-36 113z" />
<glyph unicode="/" horiz-adv-x="1034" d="M137 -229l635 1663l152 -58l-635 -1663z" />
<glyph unicode="0" d="M109 687q0 339 129 519t368.5 180t367.5 -179t128 -519t-128 -521t-367.5 -181t-368.5 181t-129 520zM410 689.5q0 -318.5 46 -455t150.5 -136.5t150.5 136.5t46 454t-46 455.5t-150.5 138t-150.5 -137t-46 -455.5z" />
<glyph unicode="1" d="M211 0l4 98q182 20 279 62v981h-275v119q305 23 510 114l68 -31v-1183q39 -23 123 -40.5t133 -21.5l-6 -98h-836z" />
<glyph unicode="2" d="M121 0v119q336 324 465 525.5t129 414.5t-148 213q-66 0 -106.5 -60.5t-40.5 -135.5t43 -130q-74 -70 -157 -69.5t-132 46.5t-49 134q0 145 122 238.5t326 93.5q152 0 258 -54q203 -102 203 -340q0 -164 -125 -349t-411 -445h551v-201h-928z" />
<glyph unicode="3" d="M119 266q0 76 45 118t113.5 42t140.5 -55q-18 -39 -18.5 -99.5t39.5 -101.5t120 -41q176 0 176 244q0 133 -84.5 206.5t-240.5 73.5v127q301 25 301 258.5t-138 233.5q-76 0 -113.5 -53.5t-37.5 -125t29 -124.5q-57 -61 -143.5 -61.5t-131.5 49t-45 139.5t78 161 q137 131 357 131.5t346 -96t126 -252.5q0 -236 -268 -321q168 -37 235.5 -121t67.5 -227q0 -184 -155.5 -285.5t-349 -101.5t-321.5 75.5t-128 206.5z" />
<glyph unicode="4" d="M51 440l578 926h293v-844h194v-147h-194v-244q63 -39 178 -55l-10 -76h-635l12 76q119 14 188 55v240h-589zM317 518h338v561z" />
<glyph unicode="5" d="M158 256q0 82 45 126t116.5 44t137.5 -55q-18 -43 -18.5 -100.5t39.5 -100.5t122 -43q184 0 184 293t-211 293q-119 0 -260 -86l-112 108v582l67 55q272 -6 335 -6t370 4l59 -43l-18 -156h-565v-342q102 27 200 27q186 0 318.5 -109.5t132.5 -312.5t-135.5 -326.5 t-345 -123.5t-335.5 76.5t-126 195.5z" />
<glyph unicode="6" d="M119 504q0 322 211 560.5t567 330.5l49 -103q-227 -98 -337.5 -217t-157.5 -342q114 58 223 58q205 0 322.5 -111t117.5 -294t-137 -296t-367.5 -113t-360.5 135.5t-130 391.5zM430 551q0 -223 49 -327.5t148 -104.5q190 0 190 260q0 127 -52 197.5t-142.5 70.5 t-192.5 -69v-27z" />
<glyph unicode="7" d="M129 1337l33 31l440 -2l467 2l61 -106l-507 -1262h-297l489 1184h-444q-23 -82 -29 -199q-37 -6 -77 -6t-79 6q-10 72 -33.5 205t-23.5 147z" />
<glyph unicode="8" d="M94 373q0 96 61.5 191t172.5 169q-195 109 -195 301q0 164 127 260.5t341 96.5t341 -92t127 -248q0 -84 -61.5 -168t-161.5 -138q127 -61 199.5 -143t72.5 -211q0 -186 -135 -295.5t-375.5 -109.5t-377 100t-136.5 287zM397 385q0 -121 59.5 -189.5t161 -68.5t157.5 67.5 t56 185t-135 189.5q-80 43 -180 80q-119 -92 -119 -264zM424 1058q0 -83 60.5 -133.5t177.5 -99.5q51 35 81.5 96.5t30.5 140.5t-48 131t-128 52t-127 -52t-47 -135z" />
<glyph unicode="9" d="M92 976q0 183 137.5 295.5t367.5 112.5t360 -135t130 -391q0 -322 -210.5 -560.5t-567.5 -330.5l-49 103q227 98 338 217t158 342q-115 -58 -224 -58q-205 0 -322.5 111t-117.5 294zM389 983q0 -127 52.5 -197.5t142.5 -70.5t192 69v27q0 223 -49 327.5t-145 104.5 q-193 0 -193 -260z" />
<glyph unicode=":" horiz-adv-x="573" d="M162 141q0 158 143.5 158t143.5 -156.5t-144 -156.5q-72 0 -107.5 42t-35.5 113zM162 786q0 158 143.5 158t143.5 -156.5t-144 -156.5q-72 0 -107.5 42t-35.5 113z" />
<glyph unicode=";" horiz-adv-x="573" d="M127 -215q63 47 102 105.5t39 112.5t-53 54q-16 0 -41 -10q-45 43 -45 101.5t40 98.5t112.5 40t115.5 -48.5t43 -129.5q0 -248 -256 -396zM162 786q0 158 143.5 158t143.5 -156.5t-144 -156.5q-72 0 -107.5 42t-35.5 113z" />
<glyph unicode="&#x3c;" d="M131 455v260l905 358l70 -190l-780 -299l780 -297l-70 -191z" />
<glyph unicode="=" d="M125 297v195h960v-195h-960zM125 680v194h960v-194h-960z" />
<glyph unicode="&#x3e;" d="M131 287l780 297l-780 299l70 190l905 -358v-260l-905 -359z" />
<glyph unicode="?" horiz-adv-x="925" d="M68 1157q0 104 113.5 166.5t280.5 62.5t267 -70.5t100 -209.5q0 -78 -32.5 -146.5t-78.5 -115.5t-91 -90q-111 -109 -111 -195q0 -47 33 -117q-63 -51 -132 -51t-115 44t-46 122t30.5 136.5t75 100.5t89.5 87q104 104 104 266q0 72 -38 108.5t-85 36.5t-77.5 -24.5 t-30.5 -74.5t61 -99q-18 -45 -60 -70t-100.5 -25t-107.5 42t-49 116zM248 120.5q0 143.5 162.5 143.5t162.5 -143.5t-162.5 -143.5t-162.5 143.5z" />
<glyph unicode="@" horiz-adv-x="1886" d="M72 501.5q0 366.5 239.5 593t617.5 226.5t607 -194.5t229 -516.5q0 -248 -117.5 -400.5t-324.5 -152.5t-264 146q-123 -137 -285 -137q-123 0 -188.5 59t-65.5 172q0 244 365 272l155 13v108q0 127 -30.5 178.5t-108.5 51.5q-47 0 -78.5 -28t-31.5 -71t43 -73 q-10 -47 -46 -75t-91.5 -28t-96.5 39t-41 96q0 98 92 154.5t250 56.5q399 0 399 -293v-397q0 -57 19.5 -92t53.5 -35t67 39t47 100q33 111 33 297q0 281 -158 438.5t-431.5 157.5t-443.5 -193.5t-170 -501.5t163 -502.5t423 -194.5q195 0 326 77l65 -96q-170 -106 -391 -106 q-381 0 -606 223t-225 589.5zM764 317q0 -131 102 -131q86 0 174 103v203l-94 -9q-96 -10 -139 -48t-43 -118z" />
<glyph unicode="A" horiz-adv-x="1335" d="M-16 0l12 82q94 4 125 51l436 1233h213l440 -1214q33 -53 125 -70l-10 -82h-561l12 82q94 14 123 51l-96 293h-422l-98 -283q57 -47 174 -61l-11 -82h-462zM426 555h334l-160 492z" />
<glyph unicode="B" horiz-adv-x="1333" d="M80 0l8 84q70 14 117 61v1076q-37 37 -125 65l8 80h578q268 0 409.5 -87t141.5 -253q0 -225 -250 -291q143 -43 220 -134t77 -216q0 -180 -147.5 -282.5t-405.5 -102.5h-631zM506 133q80 -6 139 -6q150 0 220.5 61.5t70.5 194.5q-1 272 -320 272h-110v-522zM506 784h112 q281 0 281 238q0 106 -67.5 162.5t-169 56.5t-156.5 -8v-449z" />
<glyph unicode="C" horiz-adv-x="1173" d="M96 674q0 346 148.5 526t439.5 180q186 0 303 -75.5t117 -194.5q0 -74 -47 -125t-106.5 -51t-103.5 26.5t-65 67.5q33 55 33 112.5t-38 94.5t-101 37q-242 0 -242 -572q0 -289 76 -435t244 -146t311 153l68 -65q-96 -109 -214 -168t-233 -59q-289 0 -439.5 174 t-150.5 520z" />
<glyph unicode="D" horiz-adv-x="1443" d="M86 0l8 84q66 14 115 59v1080q-37 35 -123 63l8 80h438q420 0 610.5 -164t190.5 -520t-192.5 -519t-620.5 -163h-434zM512 135q18 -8 80 -8q221 0 320.5 133t99.5 425t-96.5 423t-317.5 131h-86v-1104z" />
<glyph unicode="E" horiz-adv-x="1183" d="M78 0l8 84q80 12 117 51v1096q-49 43 -125 59l6 76h995l8 -338q-47 -14 -76.5 -14t-74.5 8q-31 141 -88 219h-344v-485l190 14q37 4 69 41t46 96h106v-424h-106q-29 82 -55.5 115t-61.5 37l-188 16v-524h358q66 98 96 260q43 6 81 6t71 -6l-20 -387h-1012z" />
<glyph unicode="F" horiz-adv-x="1128" d="M78 0l8 84q80 12 117 51v1096q-49 43 -125 59l6 76h977l18 -338q-43 -12 -79.5 -12t-73.5 6q-31 141 -88 219h-334v-485l190 14q37 4 69 41t46 96h106v-424h-106q-29 82 -55.5 115t-61.5 37l-188 16v-506q47 -43 153 -65l-14 -80h-565z" />
<glyph unicode="G" horiz-adv-x="1323" d="M109 674q0 344 156.5 525t461.5 181q199 0 325 -74.5t126 -195.5q0 -74 -47.5 -125t-106.5 -51t-103 26.5t-65 67.5q35 57 35 105q0 139 -172 139q-293 0 -293 -572q0 -297 83 -439t257 -142q66 0 129 28v371q-39 66 -160 80l10 82l451 16v-561q-216 -156 -501 -156 q-1 0 -1 1q-286 0 -435.5 175t-149.5 519z" />
<glyph unicode="H" horiz-adv-x="1478" d="M63 0l9 84q68 12 116 61v1076q-43 37 -125 65l9 80h571l-12 -84q-88 -16 -142 -61v-457h469v457q-53 45 -141 61l10 84h570l-13 -80q-80 -25 -124 -65v-1076q47 -43 153 -65l-14 -80h-565l8 84q68 12 116 61v490h-469v-490q47 -43 154 -65l-14 -80h-566z" />
<glyph unicode="I" horiz-adv-x="716" d="M51 0l8 84q92 14 148 61v1076q-45 45 -156 61l10 84h601l-13 -84q-88 -16 -141 -61v-1076q41 -39 154 -61l-15 -84h-596z" />
<glyph unicode="J" horiz-adv-x="698" d="M-16 -334q209 109 209 336v1219q-45 45 -156 61l10 84h600l-12 -84q-88 -16 -141 -61v-1188q0 -197 -120 -309.5t-347 -169.5z" />
<glyph unicode="K" horiz-adv-x="1396" d="M63 0l9 84q68 12 116 61v1076q-43 37 -125 65l9 80h571l-12 -84q-88 -16 -142 -61v-1076q48 -42 154 -65l-14 -80h-566zM518 713l430 477q18 23 18.5 45t-30.5 36.5t-76 14.5l-12 80h512l-12 -80q-115 -6 -181 -80l-352 -391l404 -659q66 -53 176 -72l-15 -84h-467 q-2 66 -36 119z" />
<glyph unicode="L" horiz-adv-x="1128" d="M76 1282l10 84h571l-12 -84q-88 -16 -141 -61v-1094h358q66 98 96 260q41 6 80 6t72 -6l-20 -387h-1012l8 84q80 12 117 51v1086q-33 29 -127 61z" />
<glyph unicode="M" horiz-adv-x="1732" d="M78 0l8 84q68 12 117 61v1076q-43 37 -125 65l8 80h463l334 -922l286 922h500l-12 -80q-80 -25 -125 -65v-1076q48 -42 154 -65l-15 -80h-555l8 84q70 14 115 61v895l-334 -1040h-157l-367 985v-840q47 -43 154 -65l-15 -80h-442z" />
<glyph unicode="N" horiz-adv-x="1390" d="M63 0l9 84q68 12 116 61v1076q-43 37 -125 65l9 80h403l565 -991v846q-53 45 -141 61l10 84h447l-13 -80q-80 -25 -124 -65v-1221h-312l-540 942v-797q47 -43 153 -65l-14 -80h-443z" />
<glyph unicode="O" horiz-adv-x="1423" d="M100 685q0 345 155 524.5t458 179.5t456.5 -179.5t153.5 -524.5t-153.5 -525t-456.5 -180t-458 180t-155 525zM438 685q0 -312 64.5 -449.5t209 -137.5t208 137.5t63.5 449.5t-63.5 448.5t-208 136.5t-209 -136.5t-64.5 -448.5z" />
<glyph unicode="P" horiz-adv-x="1257" d="M80 0l8 84q70 14 117 61v1076q-39 37 -125 65l8 80h578q534 0 534 -380q0 -200 -145.5 -306.5t-417.5 -106.5q-45 0 -131 7v-435q43 -43 153 -65l-14 -80h-565zM506 702h133q244 0 244 279q0 125 -64.5 192.5t-163 67.5t-149.5 -8v-531z" />
<glyph unicode="Q" horiz-adv-x="1423" d="M100 702q0 328 155 507.5t458 179.5t456.5 -179.5t153.5 -523.5q0 -612 -461 -694q72 -199 271 -275q2 -6 2 -16q0 -43 -27 -57q-197 31 -316.5 119t-197.5 225q-494 66 -494 714zM438 685q0 -312 64.5 -449.5t209 -137.5t208 137.5t63.5 449.5t-63.5 448.5t-208 136.5 t-209 -136.5t-64.5 -448.5z" />
<glyph unicode="R" horiz-adv-x="1355" d="M78 0l8 84q70 14 117 61v1076q-39 37 -125 65l8 80h578q524 0 524 -360q0 -262 -266 -351q66 -45 106 -135l154 -364q20 -47 125 -72l-15 -84h-372l-199 537q-27 66 -111 77q-35 0 -84 4h-22v-473q43 -43 153 -65l-14 -80h-565zM504 743h133q233 0 233 258 q0 115 -61 177.5t-157.5 62.5t-147.5 -8v-490z" />
<glyph unicode="S" horiz-adv-x="1050" d="M92 90v311q82 29 187 35q12 -180 65 -305q90 -33 172 -33t133 52.5t51 127t-33.5 129t-87 91.5t-118 71.5t-129 74.5t-117.5 86t-87 118t-34 160q0 162 128 268t323 106q94 0 216 -29.5t202 -72.5l-29 -283q-47 -14 -75 -14t-73 8q-27 154 -81 220.5t-145 66.5t-142 -47 t-51 -113.5t46 -119t115.5 -92.5t150.5 -93t150.5 -107.5t115.5 -141.5t46 -189q0 -180 -133 -284.5t-360 -104.5q-96 0 -228.5 33.5t-177.5 70.5z" />
<glyph unicode="T" horiz-adv-x="1308" d="M78 989v385q301 -8 669.5 -8t483.5 8v-385q-35 -6 -70 -6t-71 6q-16 143 -74 236q-102 14 -211 16v-1096q43 -41 153 -61l-14 -84h-596l8 84q88 12 148 61v1094q-45 -2 -207 -12q-74 -103 -78 -238q-37 -6 -72.5 -6t-68.5 6z" />
<glyph unicode="U" horiz-adv-x="1384" d="M4 1282l10 84h600l-12 -84q-90 -18 -141 -61v-795q0 -303 287 -303q264 0 264 334v768q-39 31 -156 57l10 84h488l-13 -80q-88 -27 -135 -65v-719q0 -190 -49 -298t-171 -163t-281 -55q-545 0 -545 440v795q-43 43 -156 61z" />
<glyph unicode="V" horiz-adv-x="1298" d="M2 1284l10 82h561l-12 -82q-86 -4 -127 -45l279 -860l299 844q-53 47 -162 61l10 82h453l-10 -82q-96 -4 -129 -53l-451 -1231h-207l-383 1198q-27 66 -131 86z" />
<glyph unicode="W" horiz-adv-x="1968" d="M2 1284l10 82h561l-12 -82q-84 -4 -129 -45l240 -860l291 987h180l282 -987l258 842q-51 49 -163 63l10 82h452l-10 -82q-96 -4 -127 -51l-409 -1233h-207l-262 881l-285 -881h-207l-350 1214q-29 49 -123 70z" />
<glyph unicode="X" horiz-adv-x="1267" d="M4 0l10 82q96 4 127 51l346 512l-368 592q-29 31 -105 47l11 82h561l-13 -82q-74 -2 -114 -43l221 -356l223 334q-45 45 -141 59l10 82h453l-11 -82q-96 -4 -129 -51l-321 -479l389 -623q33 -31 104 -43l-10 -82h-561l12 82q76 4 115 43l-240 383l-247 -369 q47 -43 141 -57l-10 -82h-453z" />
<glyph unicode="Y" horiz-adv-x="1236" d="M10 1284l10 82h555l-12 -82q-86 -4 -127 -45l244 -508l250 492q-53 47 -164 61l10 82h459l-10 -82q-90 -4 -123 -45l-350 -690v-404q47 -43 153 -65l-14 -80h-565l8 84q80 12 117 51v416l-318 663q-27 49 -123 70z" />
<glyph unicode="Z" horiz-adv-x="1159" d="M57 92l668 1155h-395q-41 -51 -74 -254q-33 -6 -77 -6t-97 17l-25 301l76 65q94 -4 440.5 -4t501.5 4l21 -78l-686 -1171h426q66 94 106 268q33 8 80 8t74 -6l-19 -395l-542 4q-393 0 -469 -4z" />
<glyph unicode="[" horiz-adv-x="753" d="M225 -352v1863h437v-110l-232 -25v-1593l232 -25v-110h-437z" />
<glyph unicode="\" horiz-adv-x="1034" d="M80 1376l151 58l635 -1663l-151 -58z" />
<glyph unicode="]" horiz-adv-x="753" d="M92 -242l232 25v1593l-232 25v110h436v-1863h-436v110z" />
<glyph unicode="^" d="M111 719l383 647h215l383 -647l-177 -103l-315 551l-313 -551z" />
<glyph unicode="_" horiz-adv-x="759" d="M0 -98h760v-152h-760v152z" />
<glyph unicode="`" horiz-adv-x="583" d="M82 1358q0 43 26.5 69.5t69.5 26.5q70 0 117 -70l164 -243l-70 -68l-239 170q-63 45 -68 115z" />
<glyph unicode="a" horiz-adv-x="1095" d="M59 242q0 272 404 301l180 12v119q0 143 -34 198.5t-104.5 55.5t-108.5 -30t-38 -78t45 -83q-10 -51 -49 -81.5t-100 -30.5t-106.5 43t-45.5 106q0 109 103.5 171.5t286.5 62.5q440 0 440 -324v-557q35 -39 123 -55l-8 -72h-369l-21 117q-131 -131 -305 -131 q-141 0 -217 65.5t-76 190.5zM330 274q0 -155 121 -155h2q94 0 190 112v224l-102 -9q-113 -8 -162 -51t-49 -121z" />
<glyph unicode="b" horiz-adv-x="1210" d="M43 1278l4 80q293 45 377 69l35 -20v-537q89 138 275 138h2q184 0 281 -123t97 -372t-122 -388t-341 -139q-156 0 -274 65l-53 -51h-154v1143q0 76 -27.5 103.5t-99.5 31.5zM459 133q55 -39 135 -39q221 0 221 430q0 361 -170 361q-88 0 -137 -86t-49 -250v-416z" />
<glyph unicode="c" horiz-adv-x="960" d="M90 488.5q0 248.5 124 380.5t359 132q158 0 257.5 -58t99.5 -150q0 -59 -46 -100.5t-103.5 -41.5t-97.5 24.5t-52 61.5q25 36 25 77q0 42 -30 68q-28 24 -71 25q-164 0 -164 -399q0 -219 54.5 -311.5t183.5 -92.5t248 109l73 -74q-147 -154 -379 -154l-1 1 q-234 0 -357 127t-123 375.5z" />
<glyph unicode="d" horiz-adv-x="1222" d="M90 481q0 250 118 388.5t335 138.5q109 0 202 -50v185q0 76 -30.5 103.5t-112.5 31.5l6 80q289 41 391 69l35 -20v-1280q43 -39 123 -55l-8 -72h-369l-26 133q-90 -147 -279.5 -147t-287 122.5t-97.5 372.5zM389 469q0 -360 170 -360h1q185 0 185 370v379q-55 39 -133 39 q-223 0 -223 -428z" />
<glyph unicode="e" horiz-adv-x="1087" d="M88 492.5q0 238.5 127 377t361.5 138.5t331 -106.5t108.5 -317.5l-58 -86h-577v-33q0 -172 49 -255t184 -83q172 0 283 113l82 -80q-84 -84 -175 -129t-239 -45q-238 0 -357.5 134t-119.5 372.5zM381 580l344 16q0 164 -33 237.5t-119 73.5q-186 0 -192 -327z" />
<glyph unicode="f" horiz-adv-x="667" d="M6 932q104 16 172 47v90q0 170 105.5 276.5t260 106.5t275.5 -76v-225h-149q-14 121 -43 171t-83.5 50t-86 -46t-31.5 -100.5t20.5 -133t20.5 -113.5h213v-129h-213v-723q47 -35 176 -57l-6 -70h-602l8 74q86 14 135 53v723h-162z" />
<glyph unicode="g" horiz-adv-x="1064" d="M47 -190q0 156 160 262q-31 49 -31 123l178 124q-125 35 -194.5 120t-69.5 206q0 172 111.5 267.5t295 95.5t291.5 -68q29 25 29 70t-57 73q0 33 33.5 55.5t83 22.5t81 -29.5t31.5 -78.5t-35.5 -99.5t-89.5 -76.5q76 -92 76 -241t-114.5 -242t-309.5 -93h-33l-69 -88 q6 -41 118 -41h86q203 0 309.5 -79t106.5 -229.5t-125 -231.5t-362.5 -81t-368.5 67t-131 192zM313 -161q0 -89 57 -131q58 -42 181 -42q246 0 246 174q-1 160 -228 160h-186l-12 -12q-58 -58 -58 -149zM379 641q0 -141 27.5 -190.5t111.5 -49.5t117 52.5t33 190.5 t-36 199.5t-112 61.5t-108.5 -61.5t-32.5 -202.5z" />
<glyph unicode="h" horiz-adv-x="1222" d="M43 1280l6 80q27 6 111 20q199 31 264 50l37 -21v-530q115 129 291 129q139 0 223 -84t84 -232v-557q47 -39 129 -55l-6 -80h-520l6 80q61 12 100 55v539q0 196 -126 196h-1q-113 0 -180 -110v-623q41 -35 123 -55l-9 -80h-520l8 84q68 14 107 51v1008q0 76 -27.5 103.5 t-99.5 31.5z" />
<glyph unicode="i" horiz-adv-x="643" d="M63 858l7 80q27 6 110 20q199 31 264 50l35 -19v-854q51 -39 131 -55l-8 -80h-526l8 84q68 14 106 51v590q0 74 -27.5 101.5t-99.5 31.5zM176 1269.5q0 143.5 163 143.5t163 -143.5t-163 -143.5t-163 143.5z" />
<glyph unicode="j" horiz-adv-x="618" d="M-106 -274q0 57 35.5 92t95 35t92.5 -52q-31 -31 -31 -69q0 -76 49 -76q29 0 47.5 36t18.5 94t-12.5 156.5t-12.5 184.5v598q0 74 -27.5 101.5t-99.5 31.5l6 80q27 6 113 20q197 31 262 50l35 -19v-1057q0 -174 -53 -262q-35 -57 -108 -86.5t-167 -29.5t-168.5 45 t-74.5 127zM162 1269.5q0 143.5 162.5 143.5t162.5 -143.5t-162.5 -143.5t-162.5 143.5z" />
<glyph unicode="k" d="M55 1278l6 80q27 6 111 18q199 33 264 51l37 -20v-868l287 276q16 21 16 37q0 59 -104 59l16 80h477l-16 -80q-115 -6 -180 -80l-195 -192l309 -483q57 -53 146 -72l-15 -84h-385q-2 61 -36 119l-209 330l-111 -111v-203q47 -39 129 -55l-6 -80h-528l8 84q70 14 106 51 v1008q0 76 -27.5 103.5t-99.5 31.5z" />
<glyph unicode="l" horiz-adv-x="630" d="M43 1278l6 80q27 6 111 18q199 33 264 51l37 -20v-1272q47 -39 129 -55l-6 -80h-529l8 84q68 14 107 51v1008q0 76 -27.5 103.5t-99.5 31.5z" />
<glyph unicode="m" horiz-adv-x="1822" d="M55 858l6 80q307 57 351 70l37 -19l16 -119q115 137 293 138q205 0 278 -168q111 168 316 168q139 0 223 -84t84 -232v-557q51 -39 131 -55l-8 -80h-518l6 80q57 12 100 55v539q0 196 -124 196h-1q-55 0 -105 -33.5t-79 -88.5q4 -37 4 -56v-557q45 -37 123 -55l-8 -80 h-510l6 80q57 12 100 55v539q0 196 -124 196h-1q-113 0 -178 -112v-623q47 -37 123 -55l-8 -80h-518l6 84q66 12 108 51v590q0 74 -28.5 101.5t-100.5 31.5z" />
<glyph unicode="n" horiz-adv-x="1236" d="M55 858l6 80q307 57 351 70l37 -19l16 -119q117 137 301 138q139 0 222 -84t83 -232v-557q51 -39 131 -55l-8 -80h-518l6 80q61 12 100 55v539q0 196 -126 196h-1q-53 0 -103 -30.5t-79 -81.5v-623q47 -37 123 -55l-8 -80h-518l6 84q66 12 108 51v590q0 74 -28.5 101.5 t-100.5 31.5z" />
<glyph unicode="o" horiz-adv-x="1165" d="M90 498q0 250 125 380t368.5 130t367.5 -130t124 -380t-124 -381t-367.5 -131t-368.5 131t-125 381zM391 497q0 -212 45 -304.5t147.5 -92.5t146.5 93.5t44 304.5t-44 303t-146.5 92t-147.5 -92t-45 -304z" />
<glyph unicode="p" horiz-adv-x="1222" d="M53 858l6 80q291 55 340 70l37 -19l21 -137q88 156 280.5 156t290.5 -123t98 -374t-117.5 -388t-334.5 -137q-111 0 -205 49v-332q61 -39 152 -55l-9 -80h-546l8 84q68 14 106 51v1022q0 74 -27.5 101.5t-99.5 31.5zM469 135q53 -41 135 -41q221 0 221 430 q0 361 -168 361q-88 0 -138 -86t-50 -250v-414z" />
<glyph unicode="q" horiz-adv-x="1210" d="M96 496.5q0 248.5 122 380t337 131.5q143 0 264 -82l70 65h151v-1288q43 -39 109 -55l-6 -80h-547l6 84q92 14 150 51v418q-88 -135 -274.5 -135t-284 131t-97.5 379.5zM395 506q0 -397 170 -397q186 0 187 370v357q-58 67 -140 67h-2q-215 0 -215 -397z" />
<glyph unicode="r" horiz-adv-x="944" d="M55 858l6 80q307 57 351 70l37 -19l16 -135q104 152 264 152q80 0 138.5 -54.5t58.5 -131.5t-42 -119t-101.5 -42t-96.5 52q29 35 29 67.5t-28 53t-66.5 20.5t-80.5 -36t-67 -93v-588q47 -37 123 -55l-8 -80h-518l6 84q66 12 108 51v590q0 74 -28.5 101.5t-100.5 31.5z " />
<glyph unicode="s" horiz-adv-x="940" d="M80 92v225l211 31q2 -68 15 -142.5t28 -101.5q59 -18 116.5 -18t98.5 39t41 98q0 117 -179.5 177.5t-254 138t-74.5 201.5t105.5 197t293.5 73q90 0 180.5 -17.5t133.5 -34.5l45 -16l-21 -256h-160q0 98 -45 165t-133 67q-59 0 -96 -39t-37 -97.5t49 -96.5t189 -87 q276 -98 276 -307q0 -145 -110.5 -226t-309.5 -81q-80 0 -191.5 33.5t-170.5 74.5z" />
<glyph unicode="t" horiz-adv-x="747" d="M18 846v94q213 80 306 256h133v-217h262v-133h-264v-598q0 -109 98 -109q74 0 147 51l41 -71q-141 -127 -327 -127q-111 0 -180.5 59.5t-69.5 179.5v615h-146z" />
<glyph unicode="u" horiz-adv-x="1222" d="M37 858l6 80q27 6 113 20q197 31 262 50l35 -19v-670q0 -196 126 -196h1q53 0 103 30.5t81 82.5v489q0 74 -28.5 101.5t-100.5 31.5l6 80q27 6 113 20q197 31 262 50l37 -19v-862q45 -39 141 -55l-6 -72h-391l-21 131q-119 -145 -305 -145q-139 0 -223 84t-84 231v424 q0 74 -27.5 101.5t-99.5 31.5z" />
<glyph unicode="v" horiz-adv-x="1087" d="M-4 920l4 71h537l-11 -71q-70 -4 -116 -39l202 -572l226 565q-47 31 -133 46l8 71h381l-9 -71q-72 -4 -106 -50l-350 -870h-211l-295 834q-25 70 -127 86z" />
<glyph unicode="w" horiz-adv-x="1634" d="M4 920l4 71h537l-10 -71q-74 -4 -121 -43l159 -562l232 676h184l195 -678l190 561q-47 31 -131 46l8 71h381l-8 -71q-78 -4 -111 -58l-301 -862h-211l-186 610l-213 -610h-211l-270 856q-31 47 -117 64z" />
<glyph unicode="x" horiz-adv-x="1075" d="M10 0l15 84q57 4 79 29l295 344l-286 405q-23 31 -95 47l13 80h495l-14 -84q-55 -6 -80 -26l156 -220l168 209q-33 31 -94 41l12 82h366l-12 -84q-72 -4 -96 -33l-266 -325l301 -422q25 -35 92 -47l-12 -80h-498l16 84q47 0 80 27l-168 237l-194 -227q51 -29 116 -41 l-12 -80h-377z" />
<glyph unicode="y" horiz-adv-x="1087" d="M-6 920l4 71h537l-11 -71q-76 -2 -116 -39l202 -572l226 565q-47 31 -134 46l9 71h381l-9 -71q-90 -4 -106 -50l-436 -1081q-54 -129 -119.5 -184.5t-167.5 -55.5t-159.5 41t-57.5 110t32.5 105.5t89 36.5t99.5 -49q-22 -17 -22 -57q0 -67 55 -68q35 0 64.5 39t68.5 137 l61 156h-69l-295 834q-25 68 -127 86z" />
<glyph unicode="z" horiz-adv-x="980" d="M78 86l489 795h-237q-25 -45 -45 -185q-49 -8 -91 -8t-98 19l-18 227l76 61q70 -4 345 -4t392 4l20 -75l-503 -805h258q39 63 69 200q51 13 86 13h3q34 0 87 -11l-14 -319q-254 2 -479 2t-332 -4z" />
<glyph unicode="{" horiz-adv-x="804" d="M164 520v123q47 6 87 49t40 92.5t-26.5 174t-26.5 165.5q0 170 125.5 273.5t334.5 103.5v-108q-111 -8 -177 -77t-66 -177q0 -57 27.5 -154.5t27.5 -157.5q0 -170 -115 -245q115 -78 115 -246q0 -59 -27.5 -156.5t-27.5 -154.5q0 -109 66.5 -178.5t176.5 -75.5v-109 q-209 0 -334.5 103.5t-125.5 273.5q0 41 26.5 166t26.5 174t-32 86t-62 47z" />
<glyph unicode="|" horiz-adv-x="655" d="M225 -309v1861h205v-1861h-205z" />
<glyph unicode="}" horiz-adv-x="804" d="M106 -229q111 6 177.5 75.5t66.5 178.5q0 57 -27.5 154t-27.5 157q0 168 115 246q-115 76 -115 245q0 59 27.5 156.5t27.5 155.5q0 109 -66.5 177t-177.5 77v108q209 0 335 -103.5t126 -273.5q0 -41 -26.5 -165.5t-26.5 -174t32 -86t64 -47.5l31 -8v-123q-47 -6 -87 -49 t-40 -92t26.5 -174t26.5 -166q0 -170 -126 -273.5t-335 -103.5v109z" />
<glyph unicode="~" d="M68 528q51 117 137 180.5t180 63.5t216 -74.5t179 -74.5q98 0 187 137q131 -63 176 -103q-125 -252 -350 -251q-68 0 -198 72.5t-171 72.5q-86 0 -182 -127q-74 23 -174 104z" />
<glyph unicode="&#xa1;" horiz-adv-x="686" d="M164 -256q0 78 51 367.5t61 423.5l175 32q-15 -364 -15 -407q0 -322 56 -512q-12 -27 -50.5 -49.5t-89.5 -22.5q-104 0 -146 45t-42 123zM207 864.5q0 143.5 162.5 143.5t162.5 -143.5t-162.5 -143.5t-162.5 143.5z" />
<glyph unicode="&#xa2;" horiz-adv-x="960" d="M76 517q0 419 358 466v182l29 17l94 -13v-178q135 -6 218 -60t83 -134q0 -55 -43 -93t-96 -38t-90 22.5t-51 56.5q25 31 24.5 72t-27 62.5t-65.5 21.5q-154 0 -154 -371q0 -201 50.5 -287.5t174.5 -86.5t226 102l72 -72q-131 -131 -322 -141v-174l-20 -23l-103 19v182 q-358 49 -358 468z" />
<glyph unicode="&#xa3;" horiz-adv-x="1138" d="M41 140q0 77 59.5 128t151.5 51q37 0 113 -14q-14 135 -68 307h-174l-19 103l23 20h137q-28 129 -28 223q0 205 123.5 314.5t351.5 109.5q143 0 252.5 -61t109.5 -180q0 -63 -44 -103.5t-103 -40.5q-111 0 -135 68q37 49 36.5 97t-33 79t-89.5 31q-195 0 -195 -297 q0 -100 29 -240h303l12 -94l-16 -29h-273q20 -127 20.5 -213t-30.5 -170q139 -74 249.5 -73.5t110.5 137.5v37q76 -2 126.5 -43t50.5 -117q0 -184 -263 -184q-80 0 -151.5 27.5t-188.5 92.5q-94 -125 -253 -124q-84 0 -139.5 40.5t-55.5 117.5zM207 145q0 -47 58.5 -47 t92.5 82q-51 18 -86 19q-65 -1 -65 -54z" />
<glyph unicode="&#xa4;" horiz-adv-x="1202" d="M133 221l115 129q-94 117 -94 254t98 250l-117 131l139 135l154 -166q63 20 163.5 20.5t158.5 -20.5l153 164l137 -133l-118 -129q98 -121 98 -254t-94 -254l116 -127l-139 -131l-143 158q-66 -23 -168.5 -23t-175.5 23l-142 -160zM426 600q0 -272 161 -272t161 272 t-161 272t-161 -272z" />
<glyph unicode="&#xa5;" horiz-adv-x="1312" d="M47 1284l10 82h555l-12 -82q-86 -4 -127 -45l244 -508l250 492q-53 47 -164 61l10 82h459l-10 -82q-90 -4 -123 -45l-217 -426h143l12 -94l-16 -29h-201l-45 -86h250l12 -94l-16 -29h-273v-336q47 -43 154 -65l-14 -80h-566l9 84q80 12 116 51v346h-294l-19 103l23 20 h264l-41 86h-248l-18 103l22 20h186l-192 401q-27 49 -123 70z" />
<glyph unicode="&#xa6;" horiz-adv-x="655" d="M225 -309v778h205v-778h-205zM225 793v759h205v-759h-205z" />
<glyph unicode="&#xa7;" horiz-adv-x="1091" d="M166 172q0 80 47 124t115 44q104 0 141 -86q-43 -43 -51 -115q0 -47 31.5 -73.5t78.5 -26.5t83 29.5t40 85.5q0 145 -168 342q-70 82 -139 168q-166 205 -166 385t139.5 276t302 96t262 -64.5t99.5 -180.5q0 -80 -47 -124t-117 -44q-104 0 -139 86q43 43 51 114 q0 45 -31.5 73t-79 28t-83 -30t-39.5 -85q0 -143 168 -338q70 -82 139 -168q166 -205 166 -387t-139.5 -278.5t-302 -96.5t-262 64.5t-99.5 181.5zM334 1024q0 -66 47 -155t114.5 -170t135.5 -160q164 -190 164 -332q18 49 18 113.5t-47 154.5t-115.5 171t-136.5 161 q-162 191 -162 334q-18 -51 -18 -117z" />
<glyph unicode="&#xa8;" horiz-adv-x="583" d="M82 1225q0 113 134 113t134 -113q0 -117 -134 -117t-134 117zM416 1225q0 113 135 113t135 -113q0 -117 -135 -117t-135 117z" />
<glyph unicode="&#xa9;" horiz-adv-x="1742" d="M256 641q0 252 180 430t435 178t435.5 -178t180.5 -430t-180.5 -430t-436.5 -178t-435 178t-179 430zM356 640q0 -216 151.5 -369.5t363.5 -153.5t361.5 153.5t149.5 370.5t-150.5 370.5t-360 153.5t-362.5 -154.5t-153 -370.5zM598 631q0 362 299 362q94 0 153.5 -39 t59.5 -91t-27.5 -79.5t-70.5 -27.5t-68 45q16 29 17 57q0 59 -68 60q-125 0 -125 -271q0 -139 39 -205.5t116.5 -66.5t147.5 74l53 -50q-104 -117 -238 -116.5t-211 88.5t-77 260z" />
<glyph unicode="&#xaa;" horiz-adv-x="860" d="M92 874q0 186 285 205l104 8v64q0 82 -18.5 115.5t-57 33.5t-59 -15t-20.5 -41.5t30 -47.5q-20 -90 -112 -90q-51 0 -87 30.5t-36 77.5q0 76 73.5 120t202.5 44q309 0 310 -221v-352q29 -18 84 -31l-9 -67h-276l-10 57q-80 -68 -186.5 -68t-162 46t-55.5 132zM98 473v125 h688v-125h-688zM307 889q0 -80 64 -80q55 0 110 53v133l-49 -4q-125 -8 -125 -102z" />
<glyph unicode="&#xab;" horiz-adv-x="1069" d="M78 455v73l389 394l63 -50l-198 -380l198 -379l-63 -50zM539 455v73l389 394l63 -50l-198 -380l198 -379l-63 -50z" />
<glyph unicode="&#xac;" d="M100 670v194h977v-616h-205v422h-772z" />
<glyph unicode="&#xad;" horiz-adv-x="690" d="M109 449v194h473v-194h-473z" />
<glyph unicode="&#xae;" horiz-adv-x="1742" d="M256 641q0 252 180 430t435 178t435.5 -178t180.5 -430t-180.5 -430t-436.5 -178t-435 178t-179 430zM356 640q0 -216 151.5 -369.5t363.5 -153.5t361.5 153.5t149.5 370.5t-150.5 370.5t-360 153.5t-362.5 -154.5t-153 -370.5zM592 328l6 51l53 18v518l-59 21l4 49h278 q252 0 252 -172q0 -127 -129 -170q29 -18 54 -65l73 -177l62 -22l-8 -51h-181l-96 258q-14 33 -53 39q-27 0 -41 2h-10v-230l73 -22l-4 -47h-274zM797 686h63q113 0 113 120t-113 120q-43 0 -63 -4v-236z" />
<glyph unicode="&#xaf;" horiz-adv-x="583" d="M82 1143v139h637v-139h-637z" />
<glyph unicode="&#xb0;" horiz-adv-x="774" d="M76 1079q0 127 88 215t219 88t220 -87t89 -215t-89 -215t-219 -87t-219 87t-89 214zM238 1079q0 -88 39.5 -140t106.5 -52t106.5 52t39.5 140t-39.5 140.5t-106.5 52.5t-106.5 -52.5t-39.5 -140.5z" />
<glyph unicode="&#xb1;" d="M143 0v195h920v-195h-920zM145 627v194h355v322h205v-322h360v-194h-360v-320h-205v320h-355z" />
<glyph unicode="&#xb2;" horiz-adv-x="894" d="M117 829v86q223 195 309 315t86 240.5t-92 120.5q-41 0 -65.5 -32.5t-24.5 -73.5t32 -80q-55 -49 -113.5 -49t-94 29.5t-35.5 87.5q0 92 84 151t202.5 59t194.5 -34q139 -59 139 -213q0 -96 -79.5 -207t-258.5 -258h347v-142h-631z" />
<glyph unicode="&#xb3;" horiz-adv-x="894" d="M117 999q0 51 31.5 79t79.5 28t106 -41q-16 -31 -17 -59q0 -78 101 -78q111 0 110 135q0 76 -57.5 117t-159.5 41v96q201 16 201 145t-86 129q-45 0 -68.5 -28.5t-23.5 -68.5t20 -75q-45 -45 -104.5 -45t-92 33t-32.5 82q0 94 98.5 144t223 50t210.5 -61t86 -158 q0 -135 -149 -192q94 -25 133 -76t39 -133q0 -117 -105.5 -180.5t-237.5 -63.5t-219 48t-87 132z" />
<glyph unicode="&#xb4;" horiz-adv-x="583" d="M82 1155l164 244q44 69 116 69q43 0 69 -26.5t26 -69.5q0 -70 -66 -115l-239 -170z" />
<glyph unicode="&#xb5;" horiz-adv-x="1239" d="M45 858l6 80q27 6 113 20q197 31 262 50l35 -19v-670q0 -197 127 -196q53 0 103 30.5t81 82.5v489q0 74 -28.5 101.5t-100.5 31.5l6 80q27 6 113 20q197 31 262 50l37 -19v-862q45 -39 141 -55l-6 -72h-391l-21 131q-119 -145 -305 -145h-18v-418h-289v1157 q0 74 -27.5 101.5t-99.5 31.5z" />
<glyph unicode="&#xb6;" horiz-adv-x="1204" d="M96 1002.5q0 185.5 132 274.5t409 89h481l-10 -86q-123 -16 -184 -55v-1225q0 -174 -100.5 -270.5t-268.5 -96.5q-256 0 -256 168q0 53 36 88t98.5 35t94.5 -51q-37 -31 -36 -80q0 -66 63 -65q37 0 59.5 28.5t22.5 77.5v809q-279 0 -410 87t-131 272.5zM422 1004 q0 -260 215 -261v523q-113 0 -164 -63.5t-51 -198.5zM717 -270q106 31 106 174v1360l-73 6v-1430q0 -78 -33 -110z" />
<glyph unicode="&#xb7;" horiz-adv-x="565" d="M139 614q0 158 143.5 158t143.5 -156.5t-143 -156.5q-72 0 -108 42t-36 113z" />
<glyph unicode="&#xb8;" horiz-adv-x="583" d="M63 -279.5q0 50.5 26 76t61.5 25.5t72.5 -19q-18 -20 -18 -57t17.5 -63.5t47.5 -26.5q74 0 74 91t-121 103l-43 50l111 133l80 -19l-17 -94q70 -20 106 -57t36 -111t-62.5 -128t-162 -54t-154 50t-54.5 100.5z" />
<glyph unicode="&#xb9;" horiz-adv-x="894" d="M176 829l4 78q125 12 185 37v569h-183v93q201 10 346 67l52 -20v-711q66 -27 172 -33l-7 -80h-569z" />
<glyph unicode="&#xba;" horiz-adv-x="892" d="M100 1036q0 340 345.5 340t345.5 -341t-345 -341q-172 0 -259 87t-87 255zM102 473v125h689v-125h-689zM336 1036q0 -129 25.5 -185t84 -56t84 56t25.5 184t-25.5 184.5t-84 56.5t-84 -55.5t-25.5 -184.5z" />
<glyph unicode="&#xbb;" horiz-adv-x="1069" d="M76 113l198 379l-198 380l63 50l389 -394v-73l-389 -392zM537 113l198 379l-198 380l63 50l389 -394v-73l-389 -392z" />
<glyph unicode="&#xbc;" horiz-adv-x="1927" d="M236 526l4 78q125 12 184 37v569h-182v93q201 10 346 67l51 -20v-711q66 -27 172 -33l-6 -80h-569zM606 4l658 1397l135 -66l-658 -1396zM1171 279l363 573h207v-516h121v-107h-121v-139q43 -20 112 -29l-8 -61h-426l11 61q72 6 114 29v137h-362zM1372 334h172v282z" />
<glyph unicode="&#xbd;" horiz-adv-x="1998" d="M238 526l4 78q125 12 184 37v569h-182v93q201 10 346 67l51 -20v-711q66 -27 172 -33l-6 -80h-569zM598 4l657 1397l136 -66l-658 -1396zM1253 -6v86q223 195 309.5 314.5t86.5 240.5t-93 121q-41 0 -65.5 -33t-24.5 -74t33 -80q-55 -49 -113.5 -49t-94.5 30t-36 87 q0 92 84 151.5t203 59.5t195 -35q139 -59 139 -213q0 -96 -80 -206.5t-258 -258.5h346v-141h-631z" />
<glyph unicode="&#xbe;" horiz-adv-x="1927" d="M106 696q0 51 32 79t80 28t106 -41q-16 -31 -17 -60q0 -78 101 -77q111 0 110 135q0 76 -57.5 117t-159.5 41v96q201 16 201 145t-86 129q-45 0 -68.5 -28.5t-23.5 -68.5t20 -75q-45 -45 -104.5 -45t-92 33t-32.5 82q0 94 98 144t223 50t211 -61.5t86 -157.5 q0 -135 -149 -192q94 -25 133 -76t39 -133q0 -117 -105.5 -180.5t-237.5 -63.5t-219.5 48t-87.5 132zM606 4l658 1397l135 -66l-658 -1396zM1171 279l363 573h207v-516h121v-107h-121v-139q43 -20 112 -29l-8 -61h-426l11 61q72 6 114 29v137h-362zM1372 334h172v282z" />
<glyph unicode="&#xbf;" horiz-adv-x="925" d="M68 -131q0 78 32.5 146.5t78.5 115.5t91 90q111 109 111 195q0 47 -33 116q63 51 132 51.5t115 -43.5t46 -122t-30.5 -136.5t-74.5 -100.5t-90 -87q-104 -104 -104 -266q0 -72 38 -108.5t85 -36.5t77.5 24.5t30.5 74.5t-61 99q18 45 60 69.5t100.5 24.5t107.5 -42 t49 -115q0 -104 -113.5 -167t-280.5 -63t-267 71t-100 210zM324 854q0 143 162.5 143t162.5 -143t-162.5 -143t-162.5 143z" />
<glyph unicode="&#xc0;" horiz-adv-x="1335" d="M-16 0l12 82q94 4 125 51l436 1233h213l440 -1214q33 -53 125 -70l-10 -82h-561l12 82q94 14 123 51l-96 293h-422l-98 -283q57 -47 174 -61l-11 -82h-462zM408 1731q0 43 26.5 69.5t69.5 26.5q70 0 117 -70l163 -244l-69 -67l-240 170q-63 45 -67 115zM426 555h334 l-160 492z" />
<glyph unicode="&#xc1;" horiz-adv-x="1335" d="M-16 0l12 82q94 4 125 51l436 1233h213l440 -1214q33 -53 125 -70l-10 -82h-561l12 82q94 14 123 51l-96 293h-422l-98 -283q57 -47 174 -61l-11 -82h-462zM426 555h334l-160 492zM535 1528l163 244q45 69 117 69q43 0 68.5 -26.5t25.5 -69.5q0 -70 -65 -115l-240 -170z " />
<glyph unicode="&#xc2;" horiz-adv-x="1335" d="M-16 0l12 82q94 4 125 51l436 1233h213l440 -1214q33 -53 125 -70l-10 -82h-561l12 82q94 14 123 51l-96 293h-422l-98 -283q57 -47 174 -61l-11 -82h-462zM356 1520l195 219q49 55 110.5 55t110.5 -55l195 -219l-60 -76l-245 170l-246 -170zM426 555h334l-160 492z" />
<glyph unicode="&#xc3;" horiz-adv-x="1335" d="M-16 0l12 82q94 4 125 51l436 1233h213l440 -1214q33 -53 125 -70l-10 -82h-561l12 82q94 14 123 51l-96 293h-422l-98 -283q57 -47 174 -61l-11 -82h-462zM313 1554q90 193 230 193q43 0 127 -41t136 -41t112 80q61 -23 98 -64q-90 -195 -228 -194q-43 0 -129 40 t-127 40q-61 0 -120 -78q-61 25 -99 65zM426 555h334l-160 492z" />
<glyph unicode="&#xc4;" horiz-adv-x="1335" d="M-16 0l12 82q94 4 125 51l436 1233h213l440 -1214q33 -53 125 -70l-10 -82h-561l12 82q94 14 123 51l-96 293h-422l-98 -283q57 -47 174 -61l-11 -82h-462zM360 1585q0 113 134.5 113t134.5 -113q0 -117 -134.5 -117t-134.5 117zM426 555h334l-160 492zM694 1585 q0 113 135.5 113t135.5 -113q0 -117 -135.5 -117t-135.5 117z" />
<glyph unicode="&#xc5;" horiz-adv-x="1335" d="M-16 0l12 82q94 4 125 51l436 1233h213l440 -1214q33 -53 125 -70l-10 -82h-561l12 82q94 14 123 51l-96 293h-422l-98 -283q57 -47 174 -61l-11 -82h-462zM426 555h334l-160 492zM434 1651q0 90 62.5 150.5t167 60.5t168 -60.5t63.5 -150.5t-63.5 -149.5t-168 -59.5 t-167 59.5t-62.5 149.5zM582 1651.5q0 -113.5 83 -113.5t83 113.5t-83 113.5t-83 -113.5z" />
<glyph unicode="&#xc6;" horiz-adv-x="1802" d="M-6 0l12 82q104 4 131 63l631 1221h928l8 -338q-47 -14 -77 -14t-75 8q-31 141 -88 219h-313v-485l160 14q37 4 68.5 41t45.5 96h107v-424h-107q-29 82 -55.5 115t-60.5 37l-158 16v-524h328q66 98 96 260q43 6 80 6t71 -6l-20 -387h-981l8 84q80 12 117 51v291h-406 l-145 -287q53 -43 168 -57l-10 -82h-463zM510 555h340v666z" />
<glyph unicode="&#xc7;" horiz-adv-x="1173" d="M96 688q0 332 148.5 512t439.5 180q186 0 303 -75.5t117 -194.5q0 -74 -47 -125t-106.5 -51t-103.5 26.5t-65 67.5q33 55 33 112.5t-38 94.5t-101 37q-242 0 -242 -572q0 -289 76 -435t244 -146t311 153l68 -65q-190 -213 -422 -225l-11 -62q70 -20 106 -57t36 -111 t-62.5 -128t-162 -54t-153.5 50t-54 100.5t26.5 76t61 25.5t71.5 -19q-18 -20 -18 -57t17.5 -63.5t47.5 -26.5q74 0 74 91t-121 103l-43 50l70 86q-500 49 -500 702z" />
<glyph unicode="&#xc8;" horiz-adv-x="1183" d="M78 0l8 84q80 12 117 51v1096q-49 43 -125 59l6 76h995l8 -338q-47 -14 -76.5 -14t-74.5 8q-31 141 -88 219h-344v-485l190 14q37 4 69 41t46 96h106v-424h-106q-29 82 -55.5 115t-61.5 37l-188 16v-524h358q66 98 96 260q43 6 81 6t71 -6l-20 -387h-1012zM373 1731 q0 43 26.5 69.5t69.5 26.5q70 0 117 -70l164 -244l-70 -67l-240 170q-63 45 -67 115z" />
<glyph unicode="&#xc9;" horiz-adv-x="1183" d="M78 0l8 84q80 12 117 51v1096q-49 43 -125 59l6 76h995l8 -338q-47 -14 -76.5 -14t-74.5 8q-31 141 -88 219h-344v-485l190 14q37 4 69 41t46 96h106v-424h-106q-29 82 -55.5 115t-61.5 37l-188 16v-524h358q66 98 96 260q43 6 81 6t71 -6l-20 -387h-1012zM500 1528 l164 244q44 69 116 69q43 0 68.5 -26.5t25.5 -69.5q0 -70 -65 -115l-240 -170z" />
<glyph unicode="&#xca;" horiz-adv-x="1183" d="M78 0l8 84q80 12 117 51v1096q-49 43 -125 59l6 76h995l8 -338q-47 -14 -76.5 -14t-74.5 8q-31 141 -88 219h-344v-485l190 14q37 4 69 41t46 96h106v-424h-106q-29 82 -55.5 115t-61.5 37l-188 16v-524h358q66 98 96 260q43 6 81 6t71 -6l-20 -387h-1012zM322 1520 l194 219q49 55 110.5 55t110.5 -55l195 -219l-60 -76l-245 170l-246 -170z" />
<glyph unicode="&#xcb;" horiz-adv-x="1183" d="M78 0l8 84q80 12 117 51v1096q-49 43 -125 59l6 76h995l8 -338q-47 -14 -76.5 -14t-74.5 8q-31 141 -88 219h-344v-485l190 14q37 4 69 41t46 96h106v-424h-106q-29 82 -55.5 115t-61.5 37l-188 16v-524h358q66 98 96 260q43 6 81 6t71 -6l-20 -387h-1012zM326 1585 q0 113 134 113t134 -113q0 -117 -134 -117t-134 117zM659 1585q0 113 135.5 113t135.5 -113q0 -117 -135.5 -117t-135.5 117z" />
<glyph unicode="&#xcc;" horiz-adv-x="716" d="M51 0l8 84q92 14 148 61v1076q-45 45 -156 61l10 84h601l-13 -84q-88 -16 -141 -61v-1076q41 -39 154 -61l-15 -84h-596zM115 1731q0 43 26.5 69.5t69.5 26.5q70 0 117 -70l164 -244l-70 -67l-240 170q-63 45 -67 115z" />
<glyph unicode="&#xcd;" horiz-adv-x="716" d="M51 0l8 84q92 14 148 61v1076q-45 45 -156 61l10 84h601l-13 -84q-88 -16 -141 -61v-1076q41 -39 154 -61l-15 -84h-596zM242 1528l164 244q44 69 116 69q43 0 68.5 -26.5t25.5 -69.5q0 -70 -65 -115l-240 -170z" />
<glyph unicode="&#xce;" horiz-adv-x="716" d="M51 0l8 84q92 14 148 61v1076q-45 45 -156 61l10 84h601l-13 -84q-88 -16 -141 -61v-1076q41 -39 154 -61l-15 -84h-596zM63 1520l195 219q49 55 110.5 55t110.5 -55l195 -219l-60 -76l-245 170l-246 -170z" />
<glyph unicode="&#xcf;" horiz-adv-x="716" d="M51 0l8 84q92 14 148 61v1076q-45 45 -156 61l10 84h601l-13 -84q-88 -16 -141 -61v-1076q41 -39 154 -61l-15 -84h-596zM68 1585q0 113 134 113t134 -113q0 -117 -134 -117t-134 117zM401 1585q0 113 135.5 113t135.5 -113q0 -117 -135.5 -117t-135.5 117z" />
<glyph unicode="&#xd0;" horiz-adv-x="1452" d="M41 598v139h170v486q-37 35 -123 63l8 80h439q420 0 610 -164t190 -520t-192.5 -519t-620.5 -163h-434l8 84q66 14 115 59v455h-170zM514 135q18 -8 80 -8q221 0 320.5 133t99.5 425t-96.5 423t-317.5 131h-86v-502h270v-139h-270v-463z" />
<glyph unicode="&#xd1;" horiz-adv-x="1390" d="M63 0l9 84q68 12 116 61v1076q-43 37 -125 65l9 80h403l565 -991v846q-53 45 -141 61l10 84h447l-13 -80q-80 -25 -124 -65v-1221h-312l-540 942v-797q47 -43 153 -65l-14 -80h-443zM356 1554q90 193 230 193q41 0 127 -41t127 -41q61 0 121 80q61 -23 98 -64 q-90 -195 -228 -194q-41 0 -127 40t-139 40t-110 -78q-61 25 -99 65z" />
<glyph unicode="&#xd2;" horiz-adv-x="1423" d="M100 685q0 345 155 524.5t458 179.5t456.5 -179.5t153.5 -524.5t-153.5 -525t-456.5 -180t-458 180t-155 525zM438 685q0 -312 64.5 -449.5t209 -137.5t208 137.5t63.5 449.5t-63.5 448.5t-208 136.5t-209 -136.5t-64.5 -448.5zM457 1731q0 43 26.5 69.5t69.5 26.5 q70 0 117 -70l164 -244l-70 -67l-240 170q-63 45 -67 115z" />
<glyph unicode="&#xd3;" horiz-adv-x="1423" d="M100 685q0 345 155 524.5t458 179.5t456.5 -179.5t153.5 -524.5t-153.5 -525t-456.5 -180t-458 180t-155 525zM438 685q0 -312 64.5 -449.5t209 -137.5t208 137.5t63.5 449.5t-63.5 448.5t-208 136.5t-209 -136.5t-64.5 -448.5zM584 1528l164 244q44 69 116 69 q43 0 68.5 -26.5t25.5 -69.5q0 -70 -65 -115l-240 -170z" />
<glyph unicode="&#xd4;" horiz-adv-x="1423" d="M100 685q0 345 155 524.5t458 179.5t456.5 -179.5t153.5 -524.5t-153.5 -525t-456.5 -180t-458 180t-155 525zM406 1520l194 219q49 55 110.5 55t110.5 -55l195 -219l-60 -76l-245 170l-246 -170zM438 685q0 -312 64.5 -449.5t209 -137.5t208 137.5t63.5 449.5 t-63.5 448.5t-208 136.5t-209 -136.5t-64.5 -448.5z" />
<glyph unicode="&#xd5;" horiz-adv-x="1423" d="M100 685q0 345 155 524.5t458 179.5t456.5 -179.5t153.5 -524.5t-153.5 -525t-456.5 -180t-458 180t-155 525zM362 1554q90 193 230 193q43 0 127 -41t136 -41t112 80q61 -23 98 -64q-90 -195 -227 -194q-43 0 -129 40t-127 40q-61 0 -121 -78q-61 25 -99 65zM438 685 q0 -312 64.5 -449.5t209 -137.5t208 137.5t63.5 449.5t-63.5 448.5t-208 136.5t-209 -136.5t-64.5 -448.5z" />
<glyph unicode="&#xd6;" horiz-adv-x="1423" d="M100 685q0 345 155 524.5t458 179.5t456.5 -179.5t153.5 -524.5t-153.5 -525t-456.5 -180t-458 180t-155 525zM410 1585q0 113 134 113t134 -113q0 -117 -134 -117t-134 117zM438 685q0 -312 64.5 -449.5t209 -137.5t208 137.5t63.5 449.5t-63.5 448.5t-208 136.5 t-209 -136.5t-64.5 -448.5zM743 1585q0 113 135.5 113t135.5 -113q0 -117 -135.5 -117t-135.5 117z" />
<glyph unicode="&#xd7;" d="M156 903l145 146l307 -310l307 308l138 -138l-310 -307l314 -315l-146 -146l-313 316l-303 -303l-137 137l303 303z" />
<glyph unicode="&#xd8;" horiz-adv-x="1423" d="M100 697q0 333 155 512.5t458 179.5q203 0 346 -86l92 124l131 -98l-100 -135q141 -178 141 -516t-153.5 -518t-456.5 -180q-217 0 -359 92l-114 -156l-131 98l124 170q-133 180 -133 513zM438 686q0 -131 8 -213l480 647q-63 150 -211 150t-212.5 -136.5t-64.5 -447.5z M492 258q66 -160 215 -160t212.5 137.5t63.5 450.5q0 115 -10 223z" />
<glyph unicode="&#xd9;" horiz-adv-x="1384" d="M4 1282l10 84h600l-12 -84q-90 -18 -141 -61v-795q0 -303 287 -303q264 0 264 334v768q-39 31 -156 57l10 84h488l-13 -80q-88 -27 -135 -65v-719q0 -190 -49 -298t-171 -163t-281 -55q-545 0 -545 440v795q-43 43 -156 61zM446 1731q0 43 27 69.5t70 26.5q70 0 116 -70 l164 -244l-69 -67l-240 170q-63 45 -68 115z" />
<glyph unicode="&#xda;" horiz-adv-x="1384" d="M4 1282l10 84h600l-12 -84q-90 -18 -141 -61v-795q0 -303 287 -303q264 0 264 334v768q-39 31 -156 57l10 84h488l-13 -80q-88 -27 -135 -65v-719q0 -190 -49 -298t-171 -163t-281 -55q-545 0 -545 440v795q-43 43 -156 61zM573 1528l164 244q45 69 117 69 q43 0 68.5 -26.5t25.5 -69.5q0 -70 -65 -115l-240 -170z" />
<glyph unicode="&#xdb;" horiz-adv-x="1384" d="M4 1282l10 84h600l-12 -84q-90 -18 -141 -61v-795q0 -303 287 -303q264 0 264 334v768q-39 31 -156 57l10 84h488l-13 -80q-88 -27 -135 -65v-719q0 -190 -49 -298t-171 -163t-281 -55q-545 0 -545 440v795q-43 43 -156 61zM395 1520l195 219q49 55 110.5 55t110.5 -55 l195 -219l-60 -76l-246 170l-245 -170z" />
<glyph unicode="&#xdc;" horiz-adv-x="1384" d="M4 1282l10 84h600l-12 -84q-90 -18 -141 -61v-795q0 -303 287 -303q264 0 264 334v768q-39 31 -156 57l10 84h488l-13 -80q-88 -27 -135 -65v-719q0 -190 -49 -298t-171 -163t-281 -55q-545 0 -545 440v795q-43 43 -156 61zM399 1585q0 113 134.5 113t134.5 -113 q0 -117 -134.5 -117t-134.5 117zM733 1585q0 113 135.5 113t135.5 -113q0 -117 -135.5 -117t-135.5 117z" />
<glyph unicode="&#xdd;" horiz-adv-x="1236" d="M10 1284l10 82h555l-12 -82q-86 -4 -127 -45l244 -508l250 492q-53 47 -164 61l10 82h459l-10 -82q-90 -4 -123 -45l-350 -690v-404q47 -43 153 -65l-14 -80h-565l8 84q80 12 117 51v416l-318 663q-27 49 -123 70zM537 1528l163 244q45 69 117 69q43 0 68.5 -26.5 t25.5 -69.5q0 -70 -65 -115l-240 -170z" />
<glyph unicode="&#xde;" horiz-adv-x="1263" d="M51 0l8 84q92 14 148 61v1076q-45 45 -156 61l10 84h601l-13 -84q-88 -16 -141 -61v-121h160q535 0 534 -381q0 -199 -145.5 -305.5t-417.5 -106.5h-131v-162q41 -39 154 -61l-15 -84h-596zM508 436h133q244 0 244 279q0 125 -64.5 192.5t-163 67.5t-149.5 -8v-531z" />
<glyph unicode="&#xdf;" horiz-adv-x="1386" d="M29 0l8 74q88 14 135 53v928q0 172 129 261t350 89t349 -76t128 -233q0 -98 -92 -190.5t-241 -145.5q236 -41 372 -149.5t136 -261t-122 -256t-298 -103.5q-334 0 -334 188q0 63 40 100t95 37t107 -41q-27 -27 -27 -74.5t29.5 -74.5t72.5 -27q135 0 135 252 q0 143 -94 219t-307 103v149q84 16 154.5 103.5t70.5 177.5t-45 141t-133 51q-143 0 -174 -143q-14 -70 -14 -188v-963h-430z" />
<glyph unicode="&#xe0;" horiz-adv-x="1095" d="M59 242q0 272 404 301l180 12v119q0 143 -34 198.5t-104.5 55.5t-108.5 -30t-38 -78t45 -83q-10 -51 -49 -81.5t-100 -30.5t-106.5 43t-45.5 106q0 109 103.5 171.5t286.5 62.5q440 0 440 -324v-557q35 -39 123 -55l-8 -72h-369l-21 117q-131 -131 -305 -131 q-141 0 -217 65.5t-76 190.5zM283 1341q0 43 26.5 70t69.5 27q70 0 117 -70l163 -244l-69 -67l-240 170q-63 45 -67 114zM330 274q0 -156 123 -155q94 0 190 112v224l-102 -9q-113 -8 -162 -51t-49 -121z" />
<glyph unicode="&#xe1;" horiz-adv-x="1095" d="M59 242q0 272 404 301l180 12v119q0 143 -34 198.5t-104.5 55.5t-108.5 -30t-38 -78t45 -83q-10 -51 -49 -81.5t-100 -30.5t-106.5 43t-45.5 106q0 109 103.5 171.5t286.5 62.5q440 0 440 -324v-557q35 -39 123 -55l-8 -72h-369l-21 117q-131 -131 -305 -131 q-141 0 -217 65.5t-76 190.5zM330 274q0 -156 123 -155q94 0 190 112v224l-102 -9q-113 -8 -162 -51t-49 -121zM410 1139l163 243q45 70 117 70q43 0 68.5 -26.5t25.5 -69.5q0 -70 -65 -115l-240 -170z" />
<glyph unicode="&#xe2;" horiz-adv-x="1095" d="M59 242q0 272 404 301l180 12v119q0 143 -34 198.5t-104.5 55.5t-108.5 -30t-38 -78t45 -83q-10 -51 -49 -81.5t-100 -30.5t-106.5 43t-45.5 106q0 109 103.5 171.5t286.5 62.5q440 0 440 -324v-557q35 -39 123 -55l-8 -72h-369l-21 117q-131 -131 -305 -131 q-141 0 -217 65.5t-76 190.5zM231 1130l195 220q49 55 110.5 55t110.5 -55l195 -220l-60 -75l-245 170l-246 -170zM330 274q0 -156 123 -155q94 0 190 112v224l-102 -9q-113 -8 -162 -51t-49 -121z" />
<glyph unicode="&#xe3;" horiz-adv-x="1095" d="M59 242q0 272 404 301l180 12v119q0 143 -34 198.5t-104.5 55.5t-108.5 -30t-38 -78t45 -83q-10 -51 -49 -81.5t-100 -30.5t-106.5 43t-45.5 106q0 109 103.5 171.5t286.5 62.5q440 0 440 -324v-557q35 -39 123 -55l-8 -72h-369l-21 117q-131 -131 -305 -131 q-141 0 -217 65.5t-76 190.5zM188 1165q90 193 230 193q41 0 127 -41t127 -41q61 0 121 80q61 -23 98 -64q-90 -195 -227 -194q-41 0 -127 40t-139.5 40t-110.5 -78q-61 25 -99 65zM330 274q0 -156 123 -155q94 0 190 112v224l-102 -9q-113 -8 -162 -51t-49 -121z" />
<glyph unicode="&#xe4;" horiz-adv-x="1095" d="M59 242q0 272 404 301l180 12v119q0 143 -34 198.5t-104.5 55.5t-108.5 -30t-38 -78t45 -83q-10 -51 -49 -81.5t-100 -30.5t-106.5 43t-45.5 106q0 109 103.5 171.5t286.5 62.5q440 0 440 -324v-557q35 -39 123 -55l-8 -72h-369l-21 117q-131 -131 -305 -131 q-141 0 -217 65.5t-76 190.5zM236 1243q0 113 134 113t134 -113q0 -117 -134 -117t-134 117zM330 274q0 -156 123 -155q94 0 190 112v224l-102 -9q-113 -8 -162 -51t-49 -121zM569 1243q0 113 135.5 113t135.5 -113q0 -117 -135.5 -117t-135.5 117z" />
<glyph unicode="&#xe5;" horiz-adv-x="1095" d="M59 242q0 272 404 301l180 12v119q0 143 -34 198.5t-104.5 55.5t-108.5 -30t-38 -78t45 -83q-10 -51 -49 -81.5t-100 -30.5t-106.5 43t-45.5 106q0 109 103.5 171.5t286.5 62.5q440 0 440 -324v-557q35 -39 123 -55l-8 -72h-369l-21 117q-131 -131 -305 -131 q-141 0 -217 65.5t-76 190.5zM309 1261.5q0 90.5 62.5 151t167 60.5t168 -60.5t63.5 -151t-63.5 -149.5t-168 -59t-167 59t-62.5 149.5zM330 274q0 -156 123 -155q94 0 190 112v224l-102 -9q-113 -8 -162 -51t-49 -121zM457 1262.5q0 -113.5 83 -113.5t83 113.5t-83 113.5 t-83 -113.5z" />
<glyph unicode="&#xe6;" horiz-adv-x="1626" d="M59 242q0 272 404 301l180 12v119q0 143 -34 198.5t-104.5 55.5t-108.5 -30t-38 -78t45 -83q-10 -51 -49 -81.5t-100 -30.5t-106.5 43t-45.5 106q0 109 103.5 171.5t307.5 62.5t316 -88q119 88 329 88t306.5 -106.5t108.5 -317.5l-57 -86h-578v-33q0 -172 49 -255 t184 -83q172 0 283 113l82 -80q-84 -84 -175 -129t-239 -45q-266 0 -389 172q-59 -74 -163.5 -123t-231.5 -49t-203 65.5t-76 190.5zM330 274q0 -156 123 -155q94 0 190 112v224l-102 -9q-113 -8 -162 -51t-49 -121zM938 580l344 16q0 164 -33 237.5t-119 73.5 q-186 0 -192 -327z" />
<glyph unicode="&#xe7;" horiz-adv-x="960" d="M90 483q0 254 124 386t359 132q158 0 257.5 -58t99.5 -150q0 -59 -46 -100.5t-103.5 -41.5t-97.5 24.5t-52 61.5q25 37 24.5 79t-29 66.5t-71.5 24.5q-164 0 -164 -399q0 -219 54.5 -311.5t183.5 -92.5t248 109l73 -74q-137 -143 -352 -153l-10 -66q70 -20 105.5 -57 t35.5 -111t-62.5 -128t-161.5 -54t-153.5 50t-54.5 100.5t25.5 76t61.5 25.5t73 -19q-18 -20 -18.5 -57t17 -63.5t48.5 -26.5q74 0 74 91t-121 103l-43 50l75 92q-399 40 -399 491z" />
<glyph unicode="&#xe8;" horiz-adv-x="1087" d="M88 492.5q0 238.5 127 377t361.5 138.5t331 -106.5t108.5 -317.5l-58 -86h-577v-33q0 -172 49 -255t184 -83q172 0 283 113l82 -80q-84 -84 -175 -129t-239 -45q-238 0 -357.5 134t-119.5 372.5zM338 1341q0 43 26.5 70t69.5 27q70 0 117 -70l164 -244l-70 -67l-239 170 q-63 45 -68 114zM381 580l344 16q0 164 -33 237.5t-119 73.5q-186 0 -192 -327z" />
<glyph unicode="&#xe9;" horiz-adv-x="1087" d="M88 492.5q0 238.5 127 377t361.5 138.5t331 -106.5t108.5 -317.5l-58 -86h-577v-33q0 -172 49 -255t184 -83q172 0 283 113l82 -80q-84 -84 -175 -129t-239 -45q-238 0 -357.5 134t-119.5 372.5zM381 580l344 16q0 164 -33 237.5t-119 73.5q-186 0 -192 -327zM465 1139 l164 243q44 70 116 70q43 0 69 -26.5t26 -69.5q0 -70 -66 -115l-239 -170z" />
<glyph unicode="&#xea;" horiz-adv-x="1087" d="M88 492.5q0 238.5 127 377t361.5 138.5t331 -106.5t108.5 -317.5l-58 -86h-577v-33q0 -172 49 -255t184 -83q172 0 283 113l82 -80q-84 -84 -175 -129t-239 -45q-238 0 -357.5 134t-119.5 372.5zM287 1130l194 220q49 55 110.5 55t110.5 -55l195 -220l-59 -75l-246 170 l-246 -170zM381 580l344 16q0 164 -33 237.5t-119 73.5q-186 0 -192 -327z" />
<glyph unicode="&#xeb;" horiz-adv-x="1087" d="M88 492.5q0 238.5 127 377t361.5 138.5t331 -106.5t108.5 -317.5l-58 -86h-577v-33q0 -172 49 -255t184 -83q172 0 283 113l82 -80q-84 -84 -175 -129t-239 -45q-238 0 -357.5 134t-119.5 372.5zM291 1243q0 113 134 113t134 -113q0 -117 -134 -117t-134 117zM381 580 l344 16q0 164 -33 237.5t-119 73.5q-186 0 -192 -327zM625 1243q0 113 135 113t135 -113q0 -117 -135 -117t-135 117z" />
<glyph unicode="&#xec;" horiz-adv-x="643" d="M57 1341q0 43 27 70t70 27q70 0 116 -70l164 -244l-69 -67l-240 170q-63 45 -68 114zM63 858l7 80q27 6 110 20q199 31 264 50l35 -19v-854q51 -39 131 -55l-8 -80h-526l8 84q68 14 106 51v590q0 74 -27.5 101.5t-99.5 31.5z" />
<glyph unicode="&#xed;" horiz-adv-x="643" d="M63 858l7 80q27 6 110 20q199 31 264 50l35 -19v-854q51 -39 131 -55l-8 -80h-526l8 84q68 14 106 51v590q0 74 -27.5 101.5t-99.5 31.5zM184 1139l164 243q45 70 117 70q43 0 68.5 -26.5t25.5 -69.5q0 -70 -65 -115l-240 -170z" />
<glyph unicode="&#xee;" horiz-adv-x="643" d="M6 1130l195 220q49 55 110.5 55t110.5 -55l194 -220l-59 -75l-246 170l-245 -170zM63 858l7 80q27 6 110 20q199 31 264 50l35 -19v-854q51 -39 131 -55l-8 -80h-526l8 84q68 14 106 51v590q0 74 -27.5 101.5t-99.5 31.5z" />
<glyph unicode="&#xef;" horiz-adv-x="643" d="M10 1243q0 113 134.5 113t134.5 -113q0 -117 -134.5 -117t-134.5 117zM63 858l7 80q27 6 110 20q199 31 264 50l35 -19v-854q51 -39 131 -55l-8 -80h-526l8 84q68 14 106 51v590q0 74 -27.5 101.5t-99.5 31.5zM344 1243q0 113 135 113t135 -113q0 -117 -135 -117 t-135 117z" />
<glyph unicode="&#xf0;" horiz-adv-x="1171" d="M72 472q0 241 132 372t388 131q55 0 104 -12q-39 102 -112 176l-279 -105l-45 111l209 84q-78 51 -211 104l49 101q188 -47 340 -134l219 89l52 -125l-144 -54q283 -239 283 -663v-66q0 -242 -130 -368.5t-362.5 -126.5t-362.5 122.5t-130 363.5zM373 467 q0 -367 190 -367q104 0 148.5 94.5t44.5 294.5v80q0 145 -23 265q-61 27 -154.5 26.5t-149.5 -104t-56 -289.5z" />
<glyph unicode="&#xf1;" horiz-adv-x="1236" d="M55 858l6 80q307 57 351 70l37 -19l16 -119q117 137 301 138q139 0 222 -84t83 -232v-557q51 -39 131 -55l-8 -80h-518l6 80q61 12 100 55v539q0 197 -127 196q-53 0 -103 -30.5t-79 -81.5v-623q47 -37 123 -55l-8 -80h-518l6 84q66 12 108 51v590q0 74 -28.5 101.5 t-100.5 31.5zM303 1165q90 193 229 193q41 0 127 -41t127 -41q61 0 121 80q61 -23 99 -64q-90 -195 -228 -194q-43 0 -128 40t-138 40t-111 -78q-61 25 -98 65z" />
<glyph unicode="&#xf2;" horiz-adv-x="1165" d="M90 498q0 250 125 380t368.5 130t367.5 -130t124 -380t-124 -381t-367.5 -131t-368.5 131t-125 381zM328 1341q0 43 26.5 70t69.5 27q70 0 117 -70l164 -244l-70 -67l-240 170q-63 45 -67 114zM391 497q0 -212 45 -304.5t147.5 -92.5t146.5 93.5t44 304.5t-44 303 t-146.5 92t-147.5 -92t-45 -304z" />
<glyph unicode="&#xf3;" horiz-adv-x="1165" d="M90 498q0 250 125 380t368.5 130t367.5 -130t124 -380t-124 -381t-367.5 -131t-368.5 131t-125 381zM391 497q0 -212 45 -304.5t147.5 -92.5t146.5 93.5t44 304.5t-44 303t-146.5 92t-147.5 -92t-45 -304zM455 1139l163 243q45 70 117 70q43 0 68.5 -26.5t25.5 -69.5 q0 -70 -65 -115l-240 -170z" />
<glyph unicode="&#xf4;" horiz-adv-x="1165" d="M90 498q0 250 125 380t368.5 130t367.5 -130t124 -380t-124 -381t-367.5 -131t-368.5 131t-125 381zM276 1130l195 220q49 55 110.5 55t110.5 -55l195 -220l-60 -75l-245 170l-246 -170zM391 497q0 -212 45 -304.5t147.5 -92.5t146.5 93.5t44 304.5t-44 303t-146.5 92 t-147.5 -92t-45 -304z" />
<glyph unicode="&#xf5;" horiz-adv-x="1165" d="M90 498q0 250 125 380t368.5 130t367.5 -130t124 -380t-124 -381t-367.5 -131t-368.5 131t-125 381zM233 1165q90 193 230 193q41 0 127 -41t127 -41q61 0 121 80q61 -23 98 -64q-90 -195 -227 -194q-41 0 -127 40t-139.5 40t-110.5 -78q-61 25 -99 65zM391 497 q0 -212 45 -304.5t147.5 -92.5t146.5 93.5t44 304.5t-44 303t-146.5 92t-147.5 -92t-45 -304z" />
<glyph unicode="&#xf6;" horiz-adv-x="1165" d="M90 498q0 250 125 380t368.5 130t367.5 -130t124 -380t-124 -381t-367.5 -131t-368.5 131t-125 381zM281 1243q0 113 134 113t134 -113q0 -117 -134 -117t-134 117zM391 497q0 -212 45 -304.5t147.5 -92.5t146.5 93.5t44 304.5t-44 303t-146.5 92t-147.5 -92t-45 -304z M614 1243q0 113 135.5 113t135.5 -113q0 -117 -135.5 -117t-135.5 117z" />
<glyph unicode="&#xf7;" d="M123 487v195h960v-195h-960zM457 245.5q0 61.5 44 105.5t105.5 44t105.5 -44t44 -105.5t-44 -105.5t-105.5 -44t-105.5 44t-44 105.5zM457 923.5q0 61.5 44 105.5t105.5 44t105.5 -44t44 -105.5t-44 -105.5t-105.5 -44t-105.5 44t-44 105.5z" />
<glyph unicode="&#xf8;" horiz-adv-x="1165" d="M90 500q0 248 125 378t369 130q145 0 243 -45l91 122l124 -106l-81 -111q115 -131 114.5 -375.5t-124.5 -375.5t-367 -131q-141 0 -242 43l-84 -113l-131 98l80 109q-117 129 -117 377zM391 498q0 -84 4 -121l324 440q-45 76 -141.5 76t-141.5 -92t-45 -303zM446 172 q45 -72 142.5 -72t141.5 93.5t44 304.5q0 45 -4 110z" />
<glyph unicode="&#xf9;" horiz-adv-x="1222" d="M37 858l6 80q27 6 113 20q197 31 262 50l35 -19v-670q0 -197 127 -196q53 0 103 30.5t81 82.5v489q0 74 -28.5 101.5t-100.5 31.5l6 80q27 6 113 20q197 31 262 50l37 -19v-862q45 -39 141 -55l-6 -72h-391l-21 131q-119 -145 -305 -145q-139 0 -223 84t-84 231v424 q0 74 -27.5 101.5t-99.5 31.5zM346 1341q0 43 26.5 70t69.5 27q70 0 117 -70l164 -244l-70 -67l-239 170q-63 45 -68 114z" />
<glyph unicode="&#xfa;" horiz-adv-x="1222" d="M37 858l6 80q27 6 113 20q197 31 262 50l35 -19v-670q0 -197 127 -196q53 0 103 30.5t81 82.5v489q0 74 -28.5 101.5t-100.5 31.5l6 80q27 6 113 20q197 31 262 50l37 -19v-862q45 -39 141 -55l-6 -72h-391l-21 131q-119 -145 -305 -145q-139 0 -223 84t-84 231v424 q0 74 -27.5 101.5t-99.5 31.5zM473 1139l164 243q45 70 117 70q43 0 68.5 -26.5t25.5 -69.5q0 -70 -66 -115l-239 -170z" />
<glyph unicode="&#xfb;" horiz-adv-x="1222" d="M37 858l6 80q27 6 113 20q197 31 262 50l35 -19v-670q0 -197 127 -196q53 0 103 30.5t81 82.5v489q0 74 -28.5 101.5t-100.5 31.5l6 80q27 6 113 20q197 31 262 50l37 -19v-862q45 -39 141 -55l-6 -72h-391l-21 131q-119 -145 -305 -145q-139 0 -223 84t-84 231v424 q0 74 -27.5 101.5t-99.5 31.5zM295 1130l194 220q49 55 111 55t111 -55l194 -220l-59 -75l-246 170l-246 -170z" />
<glyph unicode="&#xfc;" horiz-adv-x="1222" d="M37 858l6 80q27 6 113 20q197 31 262 50l35 -19v-670q0 -197 127 -196q53 0 103 30.5t81 82.5v489q0 74 -28.5 101.5t-100.5 31.5l6 80q27 6 113 20q197 31 262 50l37 -19v-862q45 -39 141 -55l-6 -72h-391l-21 131q-119 -145 -305 -145q-139 0 -223 84t-84 231v424 q0 74 -27.5 101.5t-99.5 31.5zM299 1243q0 113 134 113t134 -113q0 -117 -134 -117t-134 117zM633 1243q0 113 135 113t135 -113q0 -117 -135 -117t-135 117z" />
<glyph unicode="&#xfd;" horiz-adv-x="1087" d="M-6 920l4 71h537l-11 -71q-76 -2 -116 -39l202 -572l226 565q-47 31 -134 46l9 71h381l-9 -71q-90 -4 -106 -50l-436 -1081q-54 -129 -119.5 -184.5t-167.5 -55.5t-159.5 41t-57.5 110t32.5 105.5t89 36.5t99.5 -49q-23 -18 -22 -61q0 -63 55 -64q35 0 64.5 39t68.5 137 l61 156h-69l-295 834q-25 68 -127 86zM492 1139l163 243q45 70 117 70q43 0 68.5 -26.5t25.5 -69.5q0 -70 -65 -115l-240 -170z" />
<glyph unicode="&#xfe;" horiz-adv-x="1210" d="M43 1278l4 80q293 45 377 69l35 -20v-537q90 137 275.5 137.5t282.5 -122.5t97 -372t-122 -388t-341 -139q-102 0 -192 30v-313q61 -39 151 -55l-8 -80h-547l8 84q68 14 107 51v1440q0 76 -27.5 103.5t-99.5 31.5zM459 133q55 -39 135 -39q221 0 221 430q0 361 -170 361 q-88 0 -137 -86t-49 -250v-416z" />
<glyph unicode="&#xff;" horiz-adv-x="1087" d="M-6 920l4 71h537l-11 -71q-76 -2 -116 -39l202 -572l226 565q-47 31 -134 46l9 71h381l-9 -71q-90 -4 -106 -50l-436 -1081q-54 -129 -119.5 -184.5t-167.5 -55.5t-159.5 41t-57.5 110t32.5 105.5t89 36.5t99.5 -49q-23 -18 -22 -61q0 -63 55 -64q35 0 64.5 39t68.5 137 l61 156h-69l-295 834q-25 68 -127 86zM317 1243q0 113 134.5 113t134.5 -113q0 -117 -134.5 -117t-134.5 117zM651 1243q0 113 135.5 113t135.5 -113q0 -117 -135.5 -117t-135.5 117z" />
<glyph unicode="&#x152;" horiz-adv-x="1949" d="M66 685q0 345 154.5 524.5t457.5 179.5q104 0 194 -23h990l8 -338q-47 -14 -77 -14t-75 8q-31 141 -88 219h-344v-485l191 14q37 4 68.5 41t45.5 96h107v-424h-107q-29 82 -55.5 115t-60.5 37l-189 16v-524h359q66 98 96 260q43 6 81 6t70 -6l-20 -387h-1008 q-92 -20 -186 -20q-303 0 -457.5 180t-154.5 525zM403 685q0 -312 64.5 -449.5t209 -137.5t208 137.5t63.5 449.5t-63.5 448.5t-208 136.5t-209 -136.5t-64.5 -448.5z" />
<glyph unicode="&#x153;" horiz-adv-x="1755" d="M68 498q0 250 124.5 380t361.5 130t357 -121q125 121 348.5 121t319.5 -106.5t109 -317.5l-58 -86h-577v-33q0 -172 49 -255t184 -83q172 0 283 113l82 -80q-84 -84 -175.5 -129t-238.5 -45q-213 0 -332 114q-121 -115 -354.5 -114.5t-358 131.5t-124.5 381zM369 497 q0 -212 45 -304.5t147.5 -92.5t146.5 93.5t44 304.5t-44 303t-146.5 92t-147.5 -92t-45 -304zM1053 580l344 16q0 164 -33 237.5t-119 73.5q-186 0 -192 -327z" />
<glyph unicode="&#x178;" horiz-adv-x="1236" d="M10 1284l10 82h555l-12 -82q-86 -4 -127 -45l244 -508l250 492q-53 47 -164 61l10 82h459l-10 -82q-90 -4 -123 -45l-350 -690v-404q47 -43 153 -65l-14 -80h-565l8 84q80 12 117 51v416l-318 663q-27 49 -123 70zM362 1585q0 113 134.5 113t134.5 -113 q0 -117 -134.5 -117t-134.5 117zM696 1585q0 113 135.5 113t135.5 -113q0 -117 -135.5 -117t-135.5 117z" />
<glyph unicode="&#x2c6;" horiz-adv-x="583" d="M82 1163l194 219q49 55 111 55.5t111 -55.5l194 -219l-59 -76l-246 170l-246 -170z" />
<glyph unicode="&#x2dc;" horiz-adv-x="583" d="M66 1198q90 193 229 193q41 0 127 -41t127 -41q61 0 121 80q61 -23 98 -64q-90 -195 -227 -195q-41 0 -127 40t-139.5 40t-110.5 -77q-61 25 -98 65z" />
<glyph unicode="&#x2000;" horiz-adv-x="931" />
<glyph unicode="&#x2001;" horiz-adv-x="1862" />
<glyph unicode="&#x2002;" horiz-adv-x="931" />
<glyph unicode="&#x2003;" horiz-adv-x="1862" />
<glyph unicode="&#x2004;" horiz-adv-x="620" />
<glyph unicode="&#x2005;" horiz-adv-x="465" />
<glyph unicode="&#x2006;" horiz-adv-x="310" />
<glyph unicode="&#x2007;" horiz-adv-x="310" />
<glyph unicode="&#x2008;" horiz-adv-x="232" />
<glyph unicode="&#x2009;" horiz-adv-x="372" />
<glyph unicode="&#x200a;" horiz-adv-x="103" />
<glyph unicode="&#x2010;" horiz-adv-x="690" d="M109 449v194h473v-194h-473z" />
<glyph unicode="&#x2011;" horiz-adv-x="690" d="M109 449v194h473v-194h-473z" />
<glyph unicode="&#x2012;" horiz-adv-x="690" d="M109 449v194h473v-194h-473z" />
<glyph unicode="&#x2013;" horiz-adv-x="1024" d="M78 451v194h868v-194h-868z" />
<glyph unicode="&#x2014;" horiz-adv-x="2048" d="M90 451v194h1868v-194h-1868z" />
<glyph unicode="&#x2018;" horiz-adv-x="481" d="M88 1085q0 217 229 359l68 -74q-125 -88 -125 -172q0 -61 53 -61q16 0 41 10q45 -43 45 -101.5t-40 -98.5t-112.5 -40t-115.5 48.5t-43 129.5z" />
<glyph unicode="&#x2019;" horiz-adv-x="481" d="M88 1305.5q0 58.5 40 98.5t112.5 40t115.5 -48t43 -130q0 -217 -229 -359l-68 74q125 88 125 172q0 61 -53 61q-16 0 -41 -10q-45 43 -45 101.5z" />
<glyph unicode="&#x201a;" horiz-adv-x="475" d="M84 121.5q0 58.5 40 98.5t112.5 40t115.5 -48t43 -130q0 -217 -229 -358l-68 73q125 88 125 172q0 61 -53 62q-16 0 -41 -11q-45 43 -45 101.5z" />
<glyph unicode="&#x201c;" horiz-adv-x="815" d="M88 1085q0 217 229 359l68 -74q-125 -88 -125 -172q0 -61 53 -61q16 0 41 10q45 -43 45 -101.5t-40 -98.5t-112.5 -40t-115.5 48.5t-43 129.5zM453 1085q0 217 229 359l68 -74q-125 -88 -125 -172q0 -61 53 -61q16 0 41 10q45 -43 45 -101.5t-40 -98.5t-112.5 -40 t-115.5 48.5t-43 129.5z" />
<glyph unicode="&#x201d;" horiz-adv-x="815" d="M47 1305.5q0 58.5 40 98.5t112.5 40t115.5 -48t43 -130q0 -217 -229 -359l-68 74q125 88 125 172q0 61 -53 61q-16 0 -41 -10q-45 43 -45 101.5zM412 1305.5q0 58.5 40 98.5t112.5 40t115.5 -48t43 -130q0 -217 -229 -359l-68 74q125 88 125 172q0 61 -53 61 q-16 0 -41 -10q-45 43 -45 101.5z" />
<glyph unicode="&#x201e;" horiz-adv-x="808" d="M59 121.5q0 58.5 40 98.5t113 40t116 -48t43 -130q0 -217 -230 -358l-67 73q125 88 125 172q0 61 -54 62q-16 0 -41 -11q-45 43 -45 101.5zM424 121.5q0 58.5 40 98.5t112.5 40t115.5 -48t43 -130q0 -217 -229 -358l-68 73q125 88 125 172q0 61 -53 62q-16 0 -41 -11 q-45 43 -45 101.5z" />
<glyph unicode="&#x2022;" horiz-adv-x="907" d="M209 590q0 131 63.5 207.5t182 76.5t181 -77.5t62.5 -209.5t-62.5 -208t-181 -76t-182 78t-63.5 209z" />
<glyph unicode="&#x2026;" horiz-adv-x="1581" d="M174 147q0 158 143.5 158t143.5 -156.5t-144 -156.5q-72 0 -107.5 42t-35.5 113zM649 147q0 158 143.5 158t143.5 -156.5t-143 -156.5q-72 0 -108 42t-36 113zM1124 147q0 158 143.5 158t143.5 -156.5t-143 -156.5q-72 0 -108 42t-36 113z" />
<glyph unicode="&#x202f;" horiz-adv-x="372" />
<glyph unicode="&#x2039;" horiz-adv-x="657" d="M98 455v73l389 394l64 -50l-199 -380l199 -379l-64 -50z" />
<glyph unicode="&#x203a;" horiz-adv-x="657" d="M139 113l199 379l-199 380l64 50l389 -394v-73l-389 -392z" />
<glyph unicode="&#x205f;" horiz-adv-x="465" />
<glyph unicode="&#x20ac;" horiz-adv-x="1310" d="M55 793l23 20h119q27 283 175 425t406 142q186 0 303 -75.5t117 -194.5q0 -74 -47 -125t-106.5 -51t-103.5 26.5t-64 67.5q33 55 32.5 112.5t-38 94.5t-101.5 37q-217 0 -240 -459h304l12 -94l-17 -29h-301v-86h285l12 -94l-16 -29h-274q35 -391 235 -391q63 0 101 37 t38 94.5t-32 112.5q20 41 64 67.5t103.5 26.5t106.5 -51t47 -125q0 -119 -116.5 -194.5t-303.5 -75.5q-492 0 -573 499h-111l-18 103l22 20h95q-3 25 -3 86h-116z" />
<glyph unicode="&#x2122;" horiz-adv-x="1400" d="M25 1188v178q139 -4 264 -4l268 4v-178q-10 -2 -31.5 -2t-33.5 2q-6 66 -35 108q-33 4 -97 9v-506q23 -20 70 -29l-6 -39h-274l4 39q43 6 67 29v504q-10 0 -96 -7q-31 -37 -35 -108q-10 -2 -32.5 -2t-32.5 2zM629 731l4 39q33 8 55 29v495q-20 18 -59 31l4 37h215 l153 -424l132 424h233l-6 -37q-33 -10 -60 -31v-495q21 -19 72 -31l-6 -37h-258l4 39q33 8 53 29v413l-153 -481h-74l-170 455v-387q20 -18 72 -31l-6 -37h-205z" />
<glyph unicode="&#x25fc;" horiz-adv-x="993" d="M0 0v993h993v-993h-993z" />
<glyph unicode="&#xfb01;" horiz-adv-x="1312" d="M6 932q104 16 172 47v90q0 166 140.5 274.5t374 108.5t392.5 -86v-240h-211q-27 135 -76.5 191.5t-147 56.5t-161 -47t-63.5 -123q0 -33 20.5 -111.5t20.5 -113.5h680v-844q43 -39 131 -55l-8 -80h-527l9 84q68 12 106 51v590q0 70 -32.5 97.5t-114.5 27.5h-244v-723 q47 -35 176 -57l-6 -70h-602l8 74q90 12 135 53v723h-162z" />
<glyph unicode="&#xfb02;" horiz-adv-x="1298" d="M6 932q104 16 172 47v90q0 168 143.5 275.5t368.5 107.5q63 0 159.5 -15.5t145.5 -15.5t97 6l36 -20v-1272q47 -39 129 -55l-6 -80h-528l8 84q68 14 107 51v1049q0 188 -160 188q-119 0 -185.5 -44t-66.5 -124q0 -33 20.5 -111.5t20.5 -113.5h225v-129h-225v-723 q53 -37 176 -57l-6 -70h-602l8 74q84 12 135 53v723h-162z" />
</font>
</defs>
</svg>
